<?xml version="1.0" encoding="UTF-8"?><svg id="b" xmlns="http://www.w3.org/2000/svg" width="240.9" height="49.61" viewBox="0 0 240.9 49.61"><g id="c"><path d="M96.73,10.72h-3.28c-.32,0-.57.26-.57.57v27.02c0,.32.26.57.57.57h15.89c.32,0,.57-.26.57-.57v-3.05c0-.32-.26-.57-.57-.57h-11.46c-.32,0-.57-.26-.57-.57V11.29c0-.32-.26-.57-.57-.57Z" fill="#353535"/><rect x="115.33" y="10.72" width="4.43" height="28.17" rx=".57" ry=".57" fill="#353535"/><path d="M144.71,25.95c-.56-.64-1.23-1.16-1.99-1.55-.42-.22-.86-.38-1.31-.5.98-.47,1.82-1.09,2.5-1.86.93-1.06,1.41-2.43,1.41-4.09,0-1.21-.23-2.29-.68-3.2-.45-.91-1.07-1.67-1.85-2.26-.77-.58-1.7-1.02-2.76-1.32-1.05-.29-2.2-.44-3.41-.44h-9.33c-.31,0-.57.25-.57.57v27.03c0,.31.25.57.57.57h9.21c1.37,0,2.67-.17,3.86-.52,1.2-.35,2.27-.86,3.17-1.53.92-.67,1.65-1.52,2.18-2.5.53-.99.8-2.15.8-3.44,0-.97-.16-1.89-.49-2.73-.32-.83-.77-1.58-1.32-2.22ZM131.17,26.09h5.15c1.72,0,3.1.39,4.09,1.15.98.75,1.45,1.86,1.45,3.38,0,.9-.19,1.63-.56,2.16-.38.55-.85.99-1.4,1.31-.56.33-1.16.55-1.8.65-.66.11-1.27.17-1.82.17h-5.11v-8.83ZM140.29,20.1c-.24.47-.58.86-1,1.16-.43.31-.93.53-1.5.66-.59.14-1.23.2-1.9.2h-4.73v-7.44h5.5c1.39,0,2.4.36,3.03,1.08.65.74.96,1.59.96,2.6,0,.69-.12,1.27-.37,1.74Z" fill="#353535"/><path d="M155.8,26.59h11.33c.31,0,.57-.25.57-.57v-3.06c0-.31-.25-.57-.57-.57h-11.33v-7.48h12.3c.31,0,.57-.25.57-.57v-3.06c0-.31-.25-.57-.57-.57h-16.15c-.32,0-.58.26-.58.58v27.02c0,.32.26.58.58.58h16.85c.31,0,.57-.25.57-.57v-3.06c0-.31-.25-.57-.57-.57h-13v-8.1Z" fill="#353535"/><path d="M227.34,26.59h11.33c.31,0,.57-.25.57-.57v-3.06c0-.31-.25-.57-.57-.57h-11.33v-7.48h12.3c.31,0,.57-.25.57-.57v-3.06c0-.31-.25-.57-.57-.57h-16.15c-.32,0-.58.26-.58.58v27.02c0,.32.26.58.58.58h16.85c.31,0,.57-.25.57-.57v-3.06c0-.31-.25-.57-.57-.57h-13v-8.1Z" fill="#353535"/><path d="M189.61,25.48c.87-.47,1.62-1.06,2.23-1.75.61-.69,1.08-1.47,1.4-2.32.32-.85.49-1.75.49-2.67s-.13-1.81-.4-2.75c-.27-.97-.76-1.85-1.45-2.62-.69-.77-1.64-1.42-2.82-1.91-1.18-.49-2.69-.75-4.48-.75h-9.44c-.32,0-.57.26-.57.57v27.02c0,.32.26.57.57.57h3.29c.32,0,.57-.26.57-.57v-11.53h3.59l6.82,11.81c.1.18.29.29.5.29h4.13c.45,0,.72-.49.49-.88l-7.3-11.73c.86-.14,1.66-.41,2.39-.8ZM179,14.69h4.53c.7,0,1.41.06,2.1.17.67.11,1.27.31,1.78.6.5.28.9.68,1.2,1.21.3.53.46,1.23.46,2.09s-.15,1.57-.46,2.09c-.3.52-.71.93-1.2,1.21-.52.29-1.12.49-1.78.6-.69.11-1.4.17-2.1.17h-4.53v-8.14Z" fill="#353535"/><path d="M196.96,14.92h8.27v23.39c0,.32.26.58.58.58h3.28c.32,0,.58-.26.58-.58V14.92h8.27c.32,0,.58-.26.58-.58v-3.05c0-.32-.26-.58-.58-.58h-20.97c-.32,0-.58.26-.58.58v3.05c0,.32.26.58.58.58Z" fill="#353535"/><rect y="0" width="79.37" height="49.61" fill="none"/><path d="M12.84,11.66c-.06.66-.64,1.02-1.36.95-.72-.07-1.35-.55-1.28-1.21.06-.66.8-1.3,1.52-1.23.72.07,1.19.83,1.13,1.49ZM15.63,10.51c-.72-.07-1.57.6-1.63,1.26-.06.66.65,1.39,1.37,1.47.72.07,1.27-.53,1.33-1.2.06-.66-.35-1.46-1.07-1.53ZM12.09,15.6c-.06.66.24,1.19.96,1.27s1.46-.36,1.52-1.02-.58-1.27-1.3-1.34c-.72-.07-1.12.43-1.18,1.1ZM7.06,17.65c-.72-.07-1.15.69-1.21,1.35-.06.66.23,1.34.95,1.41.72.07,1.52-.49,1.58-1.16.06-.66-.6-1.53-1.32-1.6ZM9.34,14.35c-.72-.07-1.4.18-1.46.84s.52,1.4,1.24,1.47c.72.07,1.22-.56,1.29-1.22.06-.66-.35-1.02-1.06-1.09ZM17.96,6.74c-.72-.07-1.52.58-1.59,1.25-.06.66.61,1.32,1.33,1.39.72.07,1.26-.46,1.32-1.13s-.35-1.44-1.07-1.51ZM21.89,12.56c-.06.66.56,1.44,1.27,1.51s1.3-.59,1.36-1.25c.06-.66-.4-1.2-1.12-1.27-.72-.07-1.45.35-1.52,1.01ZM25.76,7.63c-.72-.07-1.61.46-1.67,1.12-.06.66.71,1.38,1.42,1.46.72.07,1.31-.52,1.38-1.18.06-.66-.41-1.33-1.13-1.4ZM27.31,12.01c-.72-.07-1.29.29-1.35.95-.06.66.41,1.34,1.13,1.41.72.07,1.33-.5,1.39-1.16.06-.66-.45-1.13-1.17-1.2ZM21.83,7.43c-.72-.07-1.24.3-1.3.97-.06.66.34,1.46,1.06,1.53.72.07,1.54-.6,1.6-1.27.06-.66-.64-1.16-1.36-1.23ZM19.52,10.97c-.72-.07-1.26.56-1.33,1.22s.37,1.19,1.09,1.26c.72.07,1.43-.34,1.49-1,.06-.66-.53-1.41-1.25-1.48ZM30.28,42.88c.72.07,1.52-.52,1.58-1.19.06-.66-.62-1.25-1.34-1.32-.72-.07-1.56.37-1.63,1.03-.06.66.67,1.41,1.39,1.48ZM18.58,41.51c.72.07,1.56-.31,1.62-.97.06-.66-.7-1.05-1.42-1.12-.72-.07-1.1.2-1.17.86-.06.66.25,1.16.97,1.23ZM22.47,42.04c.72.07,1.22-.49,1.28-1.15.06-.66-.35-1.01-1.07-1.08-.72-.07-1.09.2-1.16.86s.22,1.3.94,1.37ZM29.68,7.87c-.72-.07-1.15.65-1.21,1.31-.06.66.26,1.01.98,1.08.72.07,1.24-.19,1.3-.86.06-.66-.36-1.47-1.07-1.54ZM26.23,37.11c.06-.66-.48-1.17-1.2-1.24-.72-.07-1.5.31-1.56.97-.06.66.64,1.05,1.36,1.12.72.07,1.33-.19,1.4-.85ZM22.15,36.71c.06-.66-.28-1.37-1-1.44-.72-.07-1.3.54-1.37,1.2-.06.66.4,1.32,1.12,1.39.72.07,1.19-.49,1.25-1.15ZM26.4,42.18c.72.07,1.48-.21,1.54-.87s-.6-1.41-1.32-1.48c-.72-.07-1.12.57-1.19,1.23-.06.66.24,1.05.96,1.12ZM30.06,37.49c.06-.66-.4-1.21-1.12-1.28-.72-.07-1.6.34-1.66,1-.06.66.7,1.44,1.42,1.51.72.07,1.3-.57,1.36-1.23ZM14.67,41.19c.72.07,1.38-.4,1.44-1.06.06-.66-.48-1.44-1.2-1.52-.72-.07-1.59.57-1.65,1.23-.06.66.69,1.27,1.41,1.34ZM11.53,32.78c.72.07,1.32-.35,1.39-1.01.06-.66-.43-1.44-1.15-1.51s-1.15.61-1.22,1.28c-.06.66.26,1.17.98,1.24ZM9.19,36.6c.72.07,1.42-.37,1.49-1.03.06-.66-.53-1.4-1.25-1.48-.72-.07-1.49.54-1.55,1.2-.06.66.6,1.24,1.31,1.31ZM7.61,32.54c.72.07,1.56-.47,1.62-1.13.06-.66-.69-1.06-1.41-1.13-.72-.07-1.16.21-1.22.87-.06.66.29,1.32,1.01,1.39ZM13.1,37.02c.72.07,1.59-.39,1.65-1.05.06-.66-.71-1.2-1.43-1.27-.72-.07-1.41.32-1.48.98-.06.66.54,1.26,1.26,1.34ZM17,37.39c.72.07,1.29-.39,1.35-1.06.06-.66-.41-1.25-1.13-1.33s-1.29.42-1.35,1.08.41,1.23,1.13,1.3ZM7.3,27.19c.06-.66-.31-1.19-1.03-1.27s-1.19.37-1.25,1.04c-.06.66.33,1.05,1.05,1.12.72.07,1.18-.23,1.24-.89ZM4.71,21.63c-.72-.07-1.47.47-1.53,1.14-.06.66.57,1.27,1.29,1.34.72.07,1.38-.41,1.44-1.07.06-.66-.49-1.34-1.21-1.41ZM25.53,25.33c.06-.66-.51-2.14-1.27-1.94-.7.18-1.34.66-1.41,1.33-.06.66.43,1.29,1.15,1.36s1.47-.08,1.53-.74ZM24.93,20.9c-.05.48.43,1.01.73,1.02.57.01,1.07-1.68.88-1.91-.42-.54-1.55.23-1.62.89ZM12.28,24.86c.72.07,1.38-.39,1.44-1.06.06-.66-.51-1.14-1.22-1.21-.72-.07-1.39.28-1.46.94-.06.66.52,1.25,1.24,1.32ZM28.89,16.07c-.67-.4-1.55.26-1.61.92-.03.29,0,1,.45.93.38-.06.93-.83,1.06-1.04s.32-.68.1-.81ZM31.24,12.15c-.72-.07-1.38.53-1.45,1.19-.06.59.43,1.18.95,1.18.52,0,1.58-.89,1.64-1.14s-.51-1.17-1.15-1.23ZM25.01,15.47c-.72-.07-1.2.63-1.26,1.29s.31,1.15,1.02,1.23c.72.07,1.1-.34,1.16-1.01.06-.66-.2-1.44-.92-1.51ZM20.35,23c-.72-.07-1.48.65-1.55,1.31s.56,1.42,1.28,1.49c.72.07,1.36-.56,1.42-1.22.06-.66-.43-1.51-1.15-1.58ZM27.12,34.63c.72.07,1.68-.68,1.45-1.31-.14-.39-.45-.73-.46-.75-.21-.24-.41-.44-.77-.48-.72-.07-1.56.27-1.63.94s.69,1.52,1.41,1.59ZM34.08,37.89c0-.09-.02-.17-.06-.25-.09.15-.29.16-.52.14-.26-.03-.81-.44-.94-.57-.24-.23-.26-.45-.22-.59,0,0,0,0,0,0-.49,0-.68.47-.73,1.02-.06.66.32,1.05,1.04,1.12.72.07,1.38-.21,1.44-.88ZM10.7,20.79c.72.07,1.58-.48,1.64-1.15.06-.66-.67-1.43-1.39-1.5-.72-.07-1.42.55-1.48,1.22-.06.66.51,1.36,1.23,1.43ZM9.93,28.89c.72.07,1.34-.63,1.4-1.29s-.44-1.2-1.16-1.27c-.72-.07-1.1.38-1.16,1.04s.2,1.45.92,1.53ZM7.06,23.15c-.06.66.58,1.49,1.3,1.56s1.52-.61,1.58-1.28c.06-.66-.61-1.35-1.32-1.42-.72-.07-1.49.48-1.56,1.14ZM22.65,19.52c-.72-.07-1.58.33-1.64.99-.06.66.71,1.22,1.43,1.29.72.07,1.47-.34,1.53-1,.06-.66-.6-1.21-1.32-1.28ZM23.18,28.77c.06-.66-.59-1.03-1.31-1.11s-1.4.17-1.46.83c-.06.66.53,1.34,1.25,1.41.72.07,1.46-.47,1.52-1.14ZM19.22,28.38c.06-.66-.52-1.15-1.24-1.22-.72-.07-1.34.3-1.41.96-.06.66.46,1.37,1.18,1.44.72.07,1.41-.51,1.47-1.18ZM19.36,33.37c.72.07,1.55-.14,1.61-.8.06-.66-.71-1.06-1.43-1.13-.72-.07-1.58.17-1.64.83-.06.66.74,1.03,1.46,1.11ZM23.26,33.78c.72.07,1.1-.2,1.16-.86.06-.66-.25-1.07-.97-1.14-.72-.07-1.55.23-1.61.89-.06.66.71,1.05,1.42,1.12ZM25.57,30.19c.51.05.86-.25.97-.53.11-.28-.05-1.66-.17-1.7s-.45-.11-.58-.12c-.72-.07-1.22.4-1.29,1.06-.06.66.34,1.22,1.06,1.29ZM33.11,10.55c0-.31.46-1.13.89-1.29.24-.09.43-.1.57-.07-.17-.41-.52-.75-1.01-.8-.72-.07-1.6.46-1.66,1.13-.06.6.58,1.01,1.24,1.13,0-.04-.03-.07-.03-.11ZM15.43,33.23c.72.07,1.59-.38,1.65-1.05s-.68-1.5-1.4-1.57c-.72-.07-1.33.63-1.39,1.3s.42,1.25,1.14,1.32ZM21.11,15.03c-.72-.07-1.43.66-1.49,1.33-.06.66.52,1.22,1.24,1.29.72.07,1.61-.34,1.67-1,.06-.66-.7-1.54-1.42-1.61ZM18.76,19c-.72-.07-1.4.47-1.47,1.14-.06.66.5,1.4,1.22,1.48s1.12-.57,1.18-1.24-.22-1.3-.93-1.38ZM14.79,23.92c-.06.66.69,1.16,1.41,1.24.72.07,1.35-.29,1.42-.96.06-.66-.48-1.29-1.2-1.36s-1.57.41-1.63,1.08ZM17.17,14.96c-.72-.07-1.09.37-1.15,1.03-.06.66.23,1.07.95,1.15.72.07,1.21-.26,1.27-.92.06-.66-.34-1.18-1.06-1.25ZM14.84,18.69c-.72-.07-1.41.4-1.48,1.06s.54,1.19,1.25,1.26c.72.07,1.21-.35,1.27-1.01.06-.66-.33-1.24-1.05-1.32ZM13.87,28.91c.72.07,1.44-.25,1.5-.92.06-.66-.58-1.2-1.29-1.28-.72-.07-1.45.33-1.52,1-.06.66.59,1.12,1.31,1.2ZM13.86,43.93c.06-.66-.6-1.05-1.32-1.13-.72-.07-1.25.2-1.32.86-.06.66.39,1.24,1.11,1.32.72.07,1.46-.39,1.53-1.05ZM11.99,39.72c.06-.66-.29-1.13-1.01-1.2-.72-.07-1.6.28-1.66.94-.06.66.73,1.25,1.44,1.32.72.07,1.16-.39,1.23-1.06ZM14.16,46.57c-.57-.06-1.23.48-1.15.79.09.31,1.65.99,1.93.99s.64-.1.66-.26c.06-.66-.72-1.45-1.44-1.52ZM8.64,42.37c-.66-.07-1.21.24-1.21.79,0,.42.6,1.42,1.3,1.42.54,0,1.06-.48,1.11-1.05.06-.66-.49-1.09-1.2-1.16ZM21.53,44.69c.06-.66-.46-1.05-1.17-1.12-.72-.07-1.31.2-1.37.86-.06.66.45,1.23,1.16,1.3.72.07,1.32-.39,1.38-1.05ZM17.64,44.3c.06-.66-.44-1.36-1.16-1.43-.72-.07-1.44.5-1.51,1.16-.06.66.52,1.52,1.24,1.59.72.07,1.36-.67,1.42-1.33ZM1.71,30.79c.04-.38.16-1.97-1.12-1.75-.1.02-.32.08-.33.42-.01.56.31,1.69.58,1.77.27.08.84-.2.87-.44ZM1.85,33.16c-.16.01-.36,0-.36.14s.3,1.77.99,2.06c.2.08.14-.36.37-.56.99-.83-.45-1.68-.99-1.64ZM8.11,39.34c.06-.66-.31-1.24-1.03-1.31s-1.15.43-1.21,1.09.25,1.33.97,1.41c.72.07,1.2-.52,1.27-1.18ZM3.72,32.04c.72.07,1.55-.36,1.61-1.03.06-.66-.65-1.4-1.37-1.47-.72-.07-1.39.59-1.46,1.25-.06.66.5,1.18,1.22,1.25ZM.74,26.54c-.06.66.68,1.24,1.4,1.32.72.07,1.52-.36,1.59-1.02.06-.66-.62-1.48-1.34-1.55-.72-.07-1.58.59-1.65,1.25ZM6.88,35.19c.06-.66-.63-1.44-1.35-1.51-.72-.07-1.23.59-1.29,1.25s.33,1.26,1.04,1.33c.72.07,1.53-.41,1.6-1.07ZM4.23,37.66c-.09-.04-.71-.03-.85.12-.25.27.65,1.65.98,1.62.15-.02.59-.06.65-.34.15-.66-.32-1.18-.78-1.39ZM18.02,47.35c-.72-.07-1.16.22-1.22.89-.03.32-.02.47.17.73.2.25,1.03.69,1.46.53s.83-.54.87-1c.06-.66-.57-1.06-1.29-1.14ZM39.94,39.58c-.06.05-.19.09-.35.12.15.12.32.2.47.22.64.06,1.45-.08,1.55-.53.09-.42-.13-.5-.39-.54-.45-.08-1.04-.15-1.46-.11.02,0,.05.02.07.03.21.13.33.62.11.82ZM35.85,42.09c.06-.66-.73-1.05-1.45-1.12-.72-.07-1.18.19-1.24.85-.06.66.33,1.16,1.05,1.23.72.07,1.58-.3,1.65-.96ZM35.98,45.11c-.72-.07-1.49.2-1.55.86-.04.46.37,1.12.76,1.09.39-.03,1.72-.56,1.84-.97.12-.41-.35-.91-1.05-.98ZM38.33,41.08c-.72-.07-1.28.27-1.35.93,0,.03,0,.07,0,.1.61-.17,1.35.14,1.65.7.1.19.13.45.1.69.52-.11.94-.5.99-1.02.06-.66-.68-1.33-1.4-1.4ZM43.05,42.11c-.04-.2-.31-.6-.75-.68.1.5-.12.99-.63,1.25-.32.16-.67.19-.98.12.05.44.33.99.72.97.84-.05,1.68-1.44,1.64-1.66ZM21.93,47.68c-.72-.07-1.26.26-1.32.88-.06.56.34.85.94,1,.2.01.33.04.53.05.54-.1,1.2-.28,1.25-.79.06-.62-.69-1.07-1.41-1.14ZM44.07,38.47c.52-.26,1.08.03,1.45.48.02-.5-.16-1.03-.61-1.03-.47,0-1.33.23-1.49.4-.16.17-.29.37-.3.47-.03.28.06.53.22.75.08-.45.35-.88.73-1.07ZM25.59,45.09c.06-.66-.56-1.52-1.28-1.6-.72-.07-1.6.64-1.66,1.3-.06.66.68,1.38,1.4,1.45.72.07,1.48-.49,1.54-1.16ZM25.86,47.74c-.72-.07-1.38.44-1.44,1.06-.03.31.1.55.51.71s1.34.1,1.64-.02c.31-.11.29-.33.3-.46.06-.63-.29-1.22-1.01-1.29ZM32.07,44.71c-.72-.07-1.39.22-1.45.88-.06.66.51,1.36,1.23,1.43s1.61-.48,1.68-1.14c.06-.66-.74-1.1-1.46-1.17ZM29.81,48.09c-.69-.07-1.16.43-1.31.76-.17.37.3.61.68.55.55-.08,1.91-.42,1.85-.88-.06-.44-.87-.4-1.21-.44ZM37.83,38.91c.19-.41-.78-.54-1.21-.68-.37-.12-1.13-.44-1.34-.23-.12.12-.14.27-.09.44.59-.06,1.26.33,1.53.85.04.08.08.17.1.26.45-.09.91-.41,1.01-.63ZM29.3,45.46c.06-.66-.38-1.4-1.1-1.47-.72-.07-1.62.53-1.69,1.19s.74,1.12,1.46,1.19c.72.07,1.26-.25,1.33-.92ZM34.11,2.73c.84.5,2.17.5,2.04.01-.09-.34-3.13-1.66-3.07-1.14.06.51.42.76,1.04,1.13ZM26.82,5c-.06.66.3,1.41,1.02,1.49.72.07,1.31-.58,1.37-1.25s-.39-1.38-1.11-1.45c-.72-.07-1.21.55-1.28,1.21ZM30.52,5.37c-.06.66.5,1.4,1.22,1.47.72.07,1.4-.54,1.46-1.2.06-.66-.48-1.49-1.2-1.56-.72-.07-1.42.63-1.49,1.3ZM30.2,2.41c.72.07,1.37-.29,1.44-.96.01-.15.04-.48-.09-.68s-1.63-.42-2.14-.25c-.18.06-.26.38-.29.68-.06.66.38,1.14,1.09,1.21ZM22.9,4.61c-.06.66.33,1.31,1.04,1.38.72.07,1.3-.48,1.36-1.14.06-.66-.42-1.13-1.14-1.2s-1.2.3-1.27.96ZM26.27,2.28c.72.07,1.45-.54,1.52-1.21.04-.39-.29-.79-.55-.93-.25-.13-1.22-.21-1.5-.09s-.49.35-.53.76c-.06.66.34,1.39,1.06,1.46ZM34.26,5.74c-.06.66.66,1.51,1.38,1.58.04,0,.08,0,.13,0,.11-.28.3-.52.59-.67.14-.07.29-.11.44-.12.08-.17.13-.35.14-.52.06-.66-.35-1.05-1.07-1.12-.72-.07-1.55.19-1.61.86ZM43.28,8.1c.3,0-.04-.51-.18-.67-.26-.29-.69-.64-.8-.62-.28.07-.34.47-.25.64.16.29.63.64,1.24.64ZM1.95,22.64c.07-.66-.29-1.15-1.11-1.22-.15-.01-.57,0-.69.33C.01,22.07,0,22.67,0,23.11s.11.55.48.62c.81.15,1.4-.43,1.47-1.09ZM46.12,11.71c0-.26.1-.54,0-.69-.27-.43-.76-1.22-1.2-1.31-.44-.1-1.11.46-1.05,1.01.06.59.95,1.14,1.66,1.28.2.04.59-.03.59-.29ZM41.22,10.17c-.14-.26-.14-.54-.06-.81-.63-.03-1.13.1-1.13.67,0,.63.18.7,1.21.76.53.03,1.14-.04,1.26-.07.05-.01.06-.04.06-.08-.53.12-1.08.01-1.34-.46ZM39.51,7.27c.31.03.57-.06.78-.21-.34,0-.64-.13-.84-.49-.28-.52-.15-1.19.27-1.58,0,0,0,0,0,0-.72-.07-1.11.25-1.17.92s.24,1.29.96,1.36ZM38.19,10.07c.2-.1.44-.12.68-.09-.12-.52-.79-.85-1.42-.91-.72-.07-1.48.19-1.54.86-.05.56.65,1,1.03,1.09.12.03.29.04.47.05-.4-.11.46-.84.78-1ZM22.4,1.5c.72.07,1.21-.08,1.36-.49.11-.31.1-.67-.23-.88-.34-.2-1.72-.12-1.91-.02-.19.09-.36.2-.38.4-.06.66.44.91,1.16.98ZM3.99,14.8c-.06.66.52,1.3,1.24,1.37.72.07,1.27-.45,1.33-1.11.06-.66-.38-1.24-1.1-1.31-.72-.07-1.4.39-1.47,1.06ZM3.73,12.11c.45.08,1.48-.56,1.54-1.22.03-.34-.1-1.21-.63-1.08-.53.14-1.04,1.3-1.12,1.66s.02.6.2.63ZM6.21,8.31c.09.02.5.08.78-.03.47-.19.82-.83,1.03-1.3.06-.13.1-.3-.12-.34-1.05-.19-1.32.28-1.65.83-.04.06-.28.77-.04.83ZM2.56,15.87c.25-.27.34-1.21.37-1.54.03-.27-.16-.43-.36-.49-.2-.07-.35.07-.41.18-.18.33-.62.92-.67,1.22-.19,1.01.94.78,1.07.63ZM6.61,11.04c-.06.66.21,1.44.93,1.51.72.07,1.61-.59,1.67-1.25s-.71-1.27-1.43-1.34c-.72-.07-1.12.41-1.18,1.08ZM1.93,18.62c-.06.66.25,1.17.97,1.24.72.07,1.25-.35,1.32-1.01s-.37-1.32-1.09-1.39c-.72-.07-1.14.5-1.2,1.16ZM18.45,1.51c.72.07,1.46-.3,1.46-1.22,0-.19-.27-.18-.74-.23-.52-.05-1.63.2-1.84.46-.48.61.6.93,1.12.98ZM9.92,8.37c.72.07,1.54-.2,1.6-.87.06-.66-.68-1.19-1.4-1.27-.72-.07-1.11.4-1.17,1.07-.06.66.25.99.97,1.06ZM16.15,5.04c.72.07,1.42-.29,1.49-.95.06-.66-.57-1.05-1.29-1.12-.72-.07-1.08.22-1.14.88-.06.66.23,1.12.94,1.2ZM18.66,4.19c-.06.66.65,1.44,1.37,1.51.72.07,1.47-.56,1.54-1.23.06-.66-.57-1.32-1.28-1.39-.72-.07-1.55.44-1.62,1.11ZM12.72,7.62c-.06.66.38,1.12,1.1,1.19.72.07,1.18-.3,1.25-.96.06-.66-.3-1.32-1.02-1.4s-1.26.5-1.32,1.16ZM12.21,5.02c.72.07,1.4-.66,1.46-1.32.06-.59-.58-1.33-.99-1.33s-1.55.56-1.78,1.02.6,1.56,1.3,1.63Z" fill="#00aa71"/><path d="M43.34,39.54c.08-.45.35-.88.73-1.07.52-.26,1.08.03,1.45.48,0,.03,0,.05,0,.08-.06.66-.46,1.14-1.18,1.07-.42-.04-.78-.26-1-.56ZM38.64,42.81c-.3-.56-1.03-.86-1.65-.7,0,.64.62,1.36,1.3,1.42.15.02.3,0,.45-.04.03-.24,0-.5-.1-.69ZM35.18,38.44c.12.49.8,1.09,1.32,1.14.1,0,.2-.01.31-.03-.02-.09-.05-.17-.1-.26-.27-.51-.94-.91-1.53-.85ZM39.58,39.7c.16-.03.3-.07.35-.12.22-.2.11-.7-.11-.82-.02-.01-.05-.02-.07-.03-.21.02-.38.06-.45.14-.21.23-.02.59.28.83ZM41.67,42.68c.51-.26.73-.75.63-1.25-.02,0-.04-.02-.06-.02-.72-.07-1.5.5-1.56,1.16,0,.07,0,.15,0,.23.31.08.66.04.98-.12ZM32.56,37.22c.13.13.68.54.94.57.23.02.43,0,.52-.14-.03-.05-.07-.11-.13-.17-.16-.17-1.06-.83-1.55-.84-.05.14-.02.36.22.59ZM39.46,6.57c.19.36.49.49.84.49.29-.21.48-.55.51-.93.03-.33.03-.62-.18-.86-.14-.11-.32-.15-.46-.25-.14-.07-.27-.01-.43-.03-.42.4-.55,1.06-.27,1.58ZM38.42,10.96c.27-.15.44-.49.46-.74,0-.08,0-.16-.01-.24-.24-.03-.48,0-.68.09-.32.16-1.18.89-.78,1,.39.02.83-.01,1.01-.11ZM34,9.27c-.43.16-.89.97-.89,1.29,0,.03.02.07.03.11.07.01.14.03.21.03.72.07,1.27-.23,1.34-.89.02-.21-.03-.42-.11-.61-.15-.03-.34-.02-.57.07ZM35.77,7.32c.47-.02.84-.36,1.03-.79-.15.01-.3.05-.44.12-.29.15-.48.39-.59.67ZM42.5,10.39c-.05-.18-.43-.94-1.15-1.01-.07,0-.13-.01-.2-.01-.08.27-.07.55.06.81.25.48.8.58,1.34.46,0-.06-.03-.14-.06-.25Z" fill="#58ba00"/><path d="M50.01,33.76c0-.42.85-1.63,1.25-1.87.41-.24.67-.02.77.63.09.66-.53,1.34-1.17,1.66-.22.11-.85,0-.85-.42ZM49.03,39.09c.64-.32.9-1.11.57-1.73-.33-.62-1.03-.64-1.67-.32-.64.32-.89.81-.56,1.43.33.62,1.02.95,1.66.63ZM53.14,12.03c-.64.32-1.27,1.02-.93,1.64s1.29.53,1.93.21c.64-.32,1.01-.89.68-1.52s-1.03-.66-1.68-.34ZM54.85,15.22c-.64.32-.91,1.28-.58,1.9.33.62,1.14.69,1.79.37.64-.32,1.02-.98.69-1.61-.33-.62-1.25-.99-1.9-.67ZM51.26,8.52c-.64.32-1.13.91-.79,1.53.33.62,1.12.58,1.76.26.64-.32.9-.79.57-1.41-.33-.62-.89-.69-1.54-.37ZM64.2,15.38c-.64.32-1.22,1.11-.89,1.73.33.62,1.3.54,1.94.22.64-.32,1.24-1.03.91-1.65-.33-.62-1.31-.62-1.96-.29ZM65.89,9.83c-.64.32-.93,1.17-.59,1.8.33.62,1.06.61,1.71.29.64-.32,1.05-.87.72-1.49-.33-.62-1.19-.91-1.83-.59ZM62.25,11.72c-.64.32-.96,1.12-.63,1.74.33.62,1.08.62,1.72.3.64-.32,1.15-.94.82-1.56s-1.26-.79-1.91-.47ZM58.67,13.7c-.64.32-1.22,1.05-.88,1.68.33.62,1.39.8,2.03.47.64-.32.67-1.03.34-1.65-.33-.62-.84-.82-1.48-.5ZM56.73,10.08c-.64.32-.83.95-.5,1.57.33.62,1.01.92,1.66.6s1.07-1.17.73-1.79c-.33-.62-1.25-.71-1.89-.39ZM60.3,8.05c-.64.32-.91,1.25-.58,1.87.33.62,1.26.96,1.91.64.64-.32.69-1.14.36-1.76-.33-.62-1.04-1.07-1.69-.75ZM65.59,35.35c.64-.32.72-1.04.39-1.66-.33-.62-.95-.93-1.59-.61s-1.21,1.22-.88,1.84c.33.62,1.44.75,2.09.43ZM63.63,40.36c.64-.32,1.02-.75.69-1.37-.33-.62-1.03-.79-1.68-.47s-.96.99-.63,1.61c.33.62.98.55,1.63.22ZM69.15,33.33c.64-.32.82-.84.49-1.46s-1.01-1.05-1.65-.73c-.64.32-.78,1.14-.44,1.76.33.62.97.75,1.61.43ZM52.66,37.21c.64-.32,1.08-1.13.74-1.76-.33-.62-1.25-.72-1.89-.39-.64.32-1.22,1.17-.89,1.79.33.62,1.39.68,2.03.36ZM67.48,38.91c.64-.32.82-1.11.49-1.73s-1.1-.96-1.75-.64c-.64.32-.75,1.09-.42,1.71.33.62,1.04.99,1.68.67ZM72.84,31.55c.64-.32,1.12-1.05.78-1.68-.33-.62-1.38-.97-2.02-.65-.64.32-.79,1.26-.46,1.88.33.62,1.05.76,1.69.44ZM70.97,36.72c.64-.32,1-.75.67-1.37-.33-.62-1-.76-1.65-.44-.64.32-.82.87-.49,1.49.33.62.83.64,1.47.32ZM67.69,13.2c-.64.32-.67,1.26-.34,1.88s1.07,1.03,1.71.71c.64-.32.95-1.24.62-1.86-.33-.62-1.34-1.05-1.98-.73ZM54.53,40.69c.64-.32.73-.88.4-1.51-.33-.62-.96-1.08-1.61-.75-.64.32-.83,1.17-.5,1.79.33.62,1.06.79,1.7.47ZM56.24,35.21c.64-.32.94-.84.61-1.46-.33-.62-1.09-.96-1.74-.64s-.75,1.08-.41,1.7c.33.62.89.72,1.54.4ZM61.97,37.27c.64-.32.63-1.11.3-1.73-.33-.62-1.04-1.22-1.68-.9-.64.32-1.04,1.46-.71,2.09.33.62,1.45.86,2.1.54ZM60.14,42.53c.64-.32.95-1.15.62-1.77-.33-.62-1.18-.81-1.82-.49s-1.09,1.16-.76,1.78c.33.62,1.32.8,1.96.48ZM58.21,38.9c.64-.32,1.02-1.07.69-1.69s-1.1-.59-1.74-.27c-.64.32-1.14.92-.8,1.54s1.21.74,1.86.42ZM60.52,17.16c-.64.32-1.04,1.05-.71,1.67.33.62,1.19.76,1.84.44.64-.32,1.06-1.1.73-1.72-.33-.62-1.21-.71-1.86-.39ZM53.52,22.83c.24.21.6.12.76.04.64-.32.95-.97.62-1.59-.29-.54-1.29-1.09-1.66-.7-.38.39.04,2.04.28,2.25ZM72.75,22.69c.64-.32.93-1.01.59-1.63-.33-.62-1.2-1.05-1.85-.73s-.95,1.33-.62,1.96c.33.62,1.22.72,1.87.4ZM69.68,16.95c-.64.32-.74,1.03-.41,1.65.33.62.95.9,1.6.58s.95-1.05.61-1.68c-.33-.62-1.16-.88-1.81-.56ZM73.29,15c-.64.32-1.11,1.38-.77,2,.33.62,1.44.81,2.09.49.64-.32.98-1.24.65-1.86-.33-.62-1.32-.95-1.97-.63ZM56.29,26.63c.64-.32.93-1.24.6-1.86-.33-.62-1.24-.88-1.88-.56-.64.32-.81,1.11-.48,1.73.33.62,1.12,1.01,1.76.69ZM54.44,31.85c.64-.32.79-.99.46-1.61-.33-.62-.94-.82-1.59-.5-.64.32-.81.89-.48,1.51.33.62.96.92,1.6.59ZM78.14,18.68c.21.4.85.68,1.02.43.16-.26.26-1.83-.19-2.08-.13-.07-.43-.09-.59.04-.72.55-.47,1.19-.24,1.62ZM74.64,26.23c.64-.32.79-.94.45-1.56s-.97-.94-1.62-.62c-.64.32-1.19,1.23-.86,1.85.33.62,1.38.65,2.02.33ZM43.44,40.42c.33.62,1.14.55,1.79.23.64-.32.85-.74.52-1.37-.06-.12-.14-.23-.22-.33,0,.03,0,.05,0,.08-.06.66-.46,1.14-1.18,1.07-.42-.04-.78-.26-1-.56-.06.31-.03.62.1.88ZM74.82,35.26c.64-.32.94-1.18.61-1.8-.33-.62-1.3-1.03-1.94-.71-.64.32-1.01,1.4-.68,2.02.33.62,1.36.82,2.01.5ZM48.58,12.16c.64-.32.79-.77.46-1.39-.33-.62-.96-1.07-1.6-.75-.64.32-.99,1.25-.66,1.87.33.62,1.16.6,1.8.27ZM50.9,15.55c.41,0,.55-.89.29-1.38-.33-.62-.9-1.17-1.55-.85-.07.04-.23.45-.23.65s1.08,1.58,1.49,1.58ZM76.36,20.76c.64-.32.99-.9.66-1.52s-1.09-.8-1.73-.48c-.64.32-.82.95-.49,1.57s.92.75,1.56.43ZM52.19,16.91c-.26.15-.23.55-.16.77.23.64.55,1.36.83,1.36.37,0,.9-.63.66-1.08-.22-.42-1.08-1.2-1.34-1.05ZM67.4,30.07c.64-.32.69-1.12.36-1.75-.33-.62-.86-.72-1.5-.4s-1.24.97-.91,1.59c.33.62,1.41.87,2.05.55ZM63.54,31.5c.64-.32,1.03-.8.69-1.42-.33-.62-1.17-.98-1.81-.66-.64.32-1.02,1.28-.68,1.91.33.62,1.16.5,1.8.18ZM66.03,24.7c-.33-.62-1.07-.74-1.71-.42-.64.32-1.24,1.11-.91,1.73.33.62,1.31.53,1.95.21s1-.89.67-1.52ZM61.54,22.46c.33.62,1.25.47,1.89.15.64-.32,1.24-.93.91-1.56-.33-.62-1.41-.9-2.05-.58-.64.32-1.08,1.37-.75,1.99ZM70.93,27.98c.64-.32,1.2-1.06.87-1.68-.33-.62-1.38-.81-2.03-.49-.64.32-.83,1.13-.5,1.75.33.62,1.01.74,1.65.42ZM69.05,24.45c.64-.32.9-.91.56-1.54-.33-.62-1.01-.83-1.66-.51s-.89.98-.56,1.6c.33.62,1.01.76,1.66.44ZM67.28,21.15c.64-.32.91-1.22.58-1.84-.33-.62-1.23-.93-1.88-.61-.64.32-.81,1.15-.47,1.78s1.13.99,1.77.67ZM61.84,28.33c.64-.32,1.01-1.26.68-1.88-.33-.62-1.35-.92-1.99-.6-.64.32-1.02,1.32-.69,1.94.33.62,1.35.86,2,.54ZM56.89,19.07c-.64.32-1.06.96-.73,1.59.33.62,1.28.98,1.92.66.64-.32.8-1.22.47-1.85-.33-.62-1.02-.72-1.66-.4ZM58.79,22.61c-.64.32-1.21,1.03-.88,1.66.33.62,1.21.46,1.85.14.64-.32,1.02-.79.69-1.41-.33-.62-1.02-.71-1.66-.39ZM58.17,30.15c.64-.32.96-1.23.63-1.85-.33-.62-1.22-.78-1.86-.46s-1.2,1.21-.87,1.83c.33.62,1.46.8,2.1.48ZM60.08,33.74c.64-.32.95-1.29.62-1.91-.33-.62-1.24-.81-1.89-.49-.64.32-1.04,1.16-.71,1.78s1.34.93,1.98.61ZM61.5,1.54c.19-.1.28-.24.18-.49-.23-.56-1.76-.75-1.99-.6-.23.15-.3.39-.21.55.33.62,1.37.86,2.02.54ZM51.67,40.8c-.33-.62-1.42-.99-2.07-.66-.64.32-.98,1.4-.65,2.03.33.62,1.34.83,1.98.5s1.06-1.24.73-1.86ZM53.48,44.38c-.33-.62-1.2-.72-1.84-.4-.64.32-.99,1.02-.65,1.64.33.62,1.05.62,1.7.3.64-.32,1.13-.92.8-1.54ZM48.04,45.93c-.64.32-.44.79-.11,1.41.33.62.63,1.08,1.27.76.64-.32,1.06-1.35.73-1.97-.33-.62-1.25-.53-1.89-.2ZM53.48,47.4c-.64.3-1.15,1.16-.82,1.74.08.13.29.39.53.41.24.02,1.01.1,1.53,0,.51-.1,1.09-1.16.76-1.73-.33-.58-1.35-.72-1.99-.42ZM57.05,42.6c-.33-.62-1.05-.66-1.69-.34-.64.32-1.12.95-.79,1.57.33.62,1.27.86,1.92.54.64-.32.9-1.15.57-1.77ZM47.85,42.7c-.33-.62-1.27-1.06-1.92-.74-.64.32-.74,1.27-.41,1.9.33.62,1.07.87,1.71.55s.95-1.09.62-1.71ZM45.09,46.81c-.23-.03-.5.08-.63.14-.36.17-.06.51.07.62.39.33.68.65,1.65.9.23.06.72-.14.39-.84-.15-.31-.88-.75-1.48-.83ZM36.99,42.11c-.07.02-.15.04-.22.08-.19.1-.25.29-.1.68.09.24,1.4,1.44,1.7,1.35.18-.05.32-.37.36-.72-.14.03-.29.05-.45.04-.68-.07-1.29-.78-1.3-1.42ZM35.18,38.44c-.12.01-.25.04-.36.09-.46.23-.77.94-.79,1.43.21.36.68.51.88.82.39.19.78.41,1.2.2.56-.28.84-.87.69-1.43-.11.02-.21.04-.31.03-.53-.05-1.2-.65-1.32-1.14ZM38.6,39.64c.27.11.68.11.99.06-.3-.23-.49-.6-.28-.83.08-.08.25-.12.45-.14-.39-.16-1.33-.13-1.47-.01-.14.12.13.85.31.92ZM76.92,28.25c-.33-.62-.89-.92-1.53-.6-.64.32-.89,1-.55,1.63.33.62.98.68,1.62.36.64-.32.79-.76.46-1.39ZM44.24,44.49c-.33-.62-1.15-.67-1.8-.35-.64.32-1.18,1.06-.85,1.68.33.62,1.18.44,1.83.12.64-.32,1.16-.82.82-1.45ZM42.24,41.41s.04.01.06.02c-.02-.13-.05-.26-.12-.38-.33-.62-.95-.71-1.6-.39-.64.32-1,.92-.67,1.55.17.32.45.51.78.59,0-.08-.01-.16,0-.23.06-.66.84-1.23,1.56-1.16ZM62.66,44.29c-.33-.62-1.31-1.05-1.95-.72-.64.32-.85,1.33-.52,1.95.33.62,1.25.97,1.89.65.64-.32.91-1.26.58-1.88ZM70.08,43.77c-.64.32-.99,1.01-.66,1.63.15.28.3.32.61.38.71.14,1.73-.7,1.84-1.09.05-.16.04-.38-.02-.5-.33-.62-1.12-.75-1.77-.43ZM75.45,36.44c-.64.32-1.17,1.29-.84,1.91.29.54,1.23.75,1.6.55.57-.3,1.22-1.38,1.18-2.03-.04-.64-1.35-.73-1.94-.44ZM73.02,40.58c.64-.32,1.04-1.18.7-1.8-.33-.62-1.3-.85-1.94-.53-.64.32-.96,1.19-.63,1.81s1.22.84,1.87.52ZM73.5,41.44c-.48.24-1.15.67-1.07,1.56.01.14.33.62.59.57s1.33-1.38,1.41-1.86c.08-.48-.66-.41-.93-.27ZM77.33,31.28c-.64.32-1.01.94-.68,1.57.31.58,1.34.9,1.71.57s.43-1.78.22-2.12c-.21-.34-.77-.26-1.25-.02ZM79.16,25.97c-.38-.26-.54-.19-.65-.14-.7.32-.98,1.11-.62,1.73.18.31.67.65.87.47.19-.18.99-1.67.41-2.06ZM63.04,47.38c-.32.16-1,.56-1.14.93-.13.34.26.67.44.78.39.23,1.94-.48,2.09-.61.25-.22.32-.53.23-.71-.33-.62-.98-.71-1.62-.39ZM34.02,37.65c.03-.05.05-.12.05-.21-.03-.67-1.46-.97-1.61-.94-.05.01-.09.07-.11.14.49,0,1.39.67,1.55.84.06.07.1.12.13.17ZM58.59,48.62c-.15.07-.71.74-.4.89.48.23,2.12,0,2.38-.18s-.03-.62-.15-.74c-.24-.27-1.52-.12-1.83.04ZM66.42,45.6c-.64.32-1.02,1.02-.69,1.64.15.29.49.68.73.68s1.64-.46,1.8-.77-.11-.68-.29-1.02c-.33-.62-.9-.85-1.55-.53ZM66.45,42.4c-.33-.62-1.32-.75-1.97-.43-.64.32-1.07,1.16-.73,1.78.33.62,1.32.85,1.96.53.64-.32,1.07-1.26.74-1.89ZM70.03,40.62c-.33-.62-1.23-.79-1.88-.47-.64.32-.83,1.03-.49,1.65.33.62,1.1,1.03,1.75.71.64-.32.96-1.27.62-1.89ZM58.8,46.22c-.33-.62-.93-.76-1.57-.44s-1.29,1.08-.96,1.7c.33.62,1.41.66,2.05.34.64-.32.81-.97.48-1.6ZM66.25,3.7c.71,0,.68-.38.58-.63-.1-.24-1.2-1.17-1.52-1.09s-.4.65-.3.84c.33.62.98.88,1.24.88ZM69.09,9.74c.33.62.98.77,1.62.45.64-.32,1.03-.98.7-1.6-.33-.62-1.12-.7-1.77-.38-.64.32-.89.91-.56,1.53ZM63.34,8.13c.33.62,1.28.88,1.92.56s.78-1.11.45-1.74c-.33-.62-1.1-1.03-1.74-.71-.64.32-.96,1.26-.63,1.89ZM68.78,6.56c.64-.32,1.2-.96.87-1.58-.33-.62-1.32-.77-1.97-.45-.64.32-.85,1.07-.51,1.69.33.62.96.67,1.61.35ZM57.74,3.25c.64-.32,1.18-1.11.85-1.73-.33-.62-1.35-.74-2-.42-.64.32-1.19,1.23-.86,1.86.33.62,1.36.61,2.01.29ZM61.52,4.55c.33.62,1.16.81,1.8.49.64-.32.94-1.07.61-1.69-.33-.62-1.23-1.02-1.88-.7s-.87,1.27-.53,1.9ZM57.88,6.36c.33.62,1.13.8,1.77.48s.75-.94.42-1.56c-.33-.62-.92-.91-1.56-.58-.64.32-.96,1.04-.63,1.67ZM78.27,24.33c.64-.32.91-.99.9-1.7-.02-.85-1.29-.54-1.93-.22-.64.32-1.26,1.04-.93,1.66.33.62,1.32.58,1.97.26ZM76.25,15.14c.33.62,1.71.51,1.89.39.18-.12.24-.18.24-.66s-.91-1.64-1.04-1.7-.26-.04-.38.01c-.64.32-1.05,1.33-.71,1.95ZM73.59,8.66c.09-.01.3-.1.3-.31s-.8-1.52-1.28-1.56c-.48-.04-.64.17-.7.54-.14.89.92,1.41,1.67,1.33ZM71.47,11.61c-.64.32-.87,1.06-.54,1.69.33.62.96.61,1.6.28s1.11-.84.78-1.46c-.33-.62-1.19-.83-1.84-.51ZM76.29,11.95c.1-.05.2-.24.16-.49s-1.04-1.81-1.42-1.88c-.38-.06-.89,1.33-.56,1.95.33.62,1.17.73,1.82.41ZM48.58,3.49c.64-.32,1.13-1.25.8-1.87-.33-.62-1.27-.53-1.91-.2s-.86.8-.53,1.42c.33.62,1,.97,1.64.65ZM40.16,5.01c.14.1.32.14.46.25.21.24.21.53.18.86-.04.38-.23.72-.51.93.25,0,.53-.09.8-.22.64-.32,1.02-.79.68-1.42s-1.14-.97-1.79-.65c-.1.05-.18.14-.26.21.17.02.29-.04.43.03ZM53.92,8.34c.33.62,1.41.62,2.06.3.64-.32,1.07-1.08.74-1.71-.33-.62-1.37-1.02-2.02-.7-.64.32-1.11,1.48-.78,2.11ZM39.76,10.5c-.02-.23-.44-.46-.9-.51.02.08.02.16.01.24-.02.24-.2.58-.46.74-.18.1-.62.13-1.01.11,0,0,0,0,.02,0,1.03.19,2.37-.24,2.34-.58ZM33.35,10.69c-.07,0-.14-.02-.21-.03.07.3.38.67.76.57.87-.22,1.39-.74.98-1.83-.04-.1-.14-.17-.3-.2.08.19.13.4.11.61-.06.66-.62.96-1.34.89ZM44.94,5.36c.64-.32.97-1.21.64-1.84-.33-.62-1.32-.98-1.96-.66-.64.32-.85,1.27-.52,1.89.33.62,1.19.92,1.84.6ZM35.77,7.32c-.13.33-.13.72.06,1.06.33.62,1.2.61,1.85.29.64-.32.76-.8.43-1.42-.26-.48-.78-.77-1.3-.72-.19.43-.56.77-1.03.79ZM41.16,9.37c.06,0,.13,0,.2.01.72.07,1.1.83,1.15,1.01.03.11.06.19.06.25.16-.04.32-.09.47-.17.64-.32.97-.89.64-1.52-.33-.62-1.08-.83-1.73-.51-.38.19-.67.54-.79.93ZM52.14,4.74c.33.62,1.25.59,1.89.27.64-.32,1.19-1.03.85-1.65-.33-.62-1.36-.83-2.01-.51s-1.07,1.26-.74,1.89ZM52.27,1.74c.62-.27.99-1.29.6-1.56-.39-.27-2.02-.21-2.36.02-.33.23-.2.69-.04.97.33.55,1.15.85,1.8.57ZM45.07,8.25c.33.62.93.61,1.58.29.64-.32.89-.72.56-1.34-.33-.62-1.04-1.09-1.69-.77-.64.32-.78,1.2-.45,1.82ZM48.51,6.55c.33.62,1.25.67,1.89.35s1.12-1.07.78-1.69c-.33-.62-1.37-.95-2.02-.63-.64.32-.99,1.35-.66,1.97Z" fill="#fbd500"/></g></svg>