<?xml version="1.0" encoding="UTF-8"?><svg id="b" xmlns="http://www.w3.org/2000/svg" width="113.39" height="111.65" viewBox="0 0 113.39 111.65"><g id="c"><path d="M13.7,94.39h-2.01c-.19,0-.35.16-.35.35v16.56c0,.19.16.35.35.35h9.73c.19,0,.35-.16.35-.35v-1.87c0-.19-.16-.35-.35-.35h-7.02c-.19,0-.35-.16-.35-.35v-13.98c0-.19-.16-.35-.35-.35Z" fill="#353535"/><rect x="25.1" y="94.39" width="2.72" height="17.26" rx=".35" ry=".35" fill="#353535"/><path d="M43.1,103.72c-.34-.39-.75-.71-1.22-.95-.26-.13-.52-.23-.8-.3.6-.29,1.11-.67,1.53-1.14.57-.65.86-1.49.86-2.51,0-.74-.14-1.4-.42-1.96-.27-.56-.66-1.02-1.13-1.38-.47-.36-1.04-.63-1.69-.81-.64-.18-1.35-.27-2.09-.27h-5.72c-.19,0-.35.16-.35.35v16.57c0,.19.16.35.35.35h5.64c.84,0,1.64-.11,2.37-.32.73-.21,1.39-.53,1.95-.94.56-.41,1.01-.93,1.33-1.53.32-.61.49-1.32.49-2.11,0-.59-.1-1.16-.3-1.67-.2-.51-.47-.97-.81-1.36ZM34.8,103.81h3.16c1.05,0,1.9.24,2.51.7.6.46.89,1.14.89,2.07,0,.55-.11,1-.34,1.33-.23.34-.52.61-.86.8-.34.2-.71.33-1.1.4-.41.07-.78.1-1.12.1h-3.13v-5.41ZM40.4,100.14c-.15.29-.36.52-.61.71-.26.19-.57.32-.92.4-.36.08-.75.13-1.16.13h-2.9v-4.56h3.37c.85,0,1.47.22,1.86.66.4.45.59.98.59,1.59,0,.42-.08.78-.22,1.06Z" fill="#353535"/><path d="M49.9,104.12h6.94c.19,0,.35-.16.35-.35v-1.88c0-.19-.16-.35-.35-.35h-6.94v-4.58h7.54c.19,0,.35-.16.35-.35v-1.88c0-.19-.16-.35-.35-.35h-9.9c-.19,0-.35.16-.35.35v16.55c0,.19.16.35.35.35h10.33c.19,0,.35-.16.35-.35v-1.88c0-.19-.16-.35-.35-.35h-7.96v-4.96Z" fill="#353535"/><path d="M93.73,104.12h6.94c.19,0,.35-.16.35-.35v-1.88c0-.19-.16-.35-.35-.35h-6.94v-4.58h7.54c.19,0,.35-.16.35-.35v-1.88c0-.19-.16-.35-.35-.35h-9.9c-.19,0-.35.16-.35.35v16.55c0,.19.16.35.35.35h10.33c.19,0,.35-.16.35-.35v-1.88c0-.19-.16-.35-.35-.35h-7.96v-4.96Z" fill="#353535"/><path d="M70.62,103.44c.53-.29.99-.65,1.37-1.07.37-.42.66-.9.86-1.42.2-.52.3-1.07.3-1.63s-.08-1.11-.25-1.69c-.17-.59-.47-1.13-.89-1.61-.42-.47-1-.87-1.73-1.17-.72-.3-1.65-.46-2.75-.46h-5.78c-.19,0-.35.16-.35.35v16.56c0,.19.16.35.35.35h2.01c.19,0,.35-.16.35-.35v-7.06h2.2l4.18,7.24c.06.11.18.18.3.18h2.53c.28,0,.44-.3.3-.54l-4.47-7.19c.53-.09,1.02-.25,1.46-.49ZM64.11,96.82h2.78c.43,0,.86.04,1.28.1.41.07.78.19,1.09.37.3.17.55.42.74.74.19.32.28.75.28,1.28s-.09.96-.28,1.28c-.19.32-.43.57-.74.74-.32.18-.69.3-1.09.37-.42.07-.86.1-1.28.1h-2.78v-4.99Z" fill="#353535"/><path d="M75.12,96.97h5.07v14.33c0,.2.16.35.35.35h2.01c.2,0,.35-.16.35-.35v-14.33h5.07c.19,0,.35-.16.35-.35v-1.87c0-.19-.16-.35-.35-.35h-12.85c-.19,0-.35.16-.35.35v1.87c0,.19.16.35.35.35Z" fill="#353535"/><rect y="0" width="113.39" height="70.87" fill="none"/><path d="M18.35,16.65c-.09.95-.92,1.45-1.94,1.35-1.03-.1-1.92-.78-1.83-1.73.09-.95,1.14-1.86,2.17-1.76,1.03.1,1.7,1.19,1.61,2.13ZM22.32,15.01c-1.03-.1-2.24.86-2.33,1.8-.09.95.93,1.99,1.96,2.09,1.03.1,1.81-.76,1.9-1.71.09-.95-.5-2.09-1.53-2.19ZM17.27,22.29c-.09.95.34,1.71,1.37,1.81s2.08-.51,2.17-1.46-.82-1.82-1.85-1.92c-1.03-.1-1.6.62-1.69,1.57ZM10.09,25.22c-1.03-.1-1.65.98-1.74,1.93-.09.95.33,1.91,1.36,2.01,1.03.1,2.17-.71,2.26-1.65.09-.95-.86-2.19-1.88-2.29ZM13.35,20.5c-1.03-.1-2,.25-2.09,1.2s.74,2,1.77,2.11c1.03.1,1.75-.8,1.84-1.75.09-.95-.49-1.46-1.52-1.56ZM25.65,9.63c-1.03-.1-2.18.83-2.27,1.78-.09.95.88,1.88,1.91,1.99,1.03.1,1.8-.66,1.89-1.61s-.5-2.06-1.53-2.16ZM31.28,17.94c-.09.95.79,2.06,1.82,2.16s1.86-.84,1.95-1.79c.09-.95-.58-1.71-1.6-1.81-1.03-.1-2.08.49-2.17,1.44ZM36.79,10.9c-1.03-.1-2.3.66-2.39,1.6-.09.95,1.01,1.98,2.03,2.08,1.03.1,1.88-.74,1.97-1.68.09-.95-.59-1.9-1.61-2ZM39.01,17.16c-1.03-.1-1.84.41-1.93,1.36-.09.95.58,1.92,1.61,2.02,1.03.1,1.9-.71,1.99-1.66.09-.95-.64-1.61-1.67-1.71ZM31.19,10.62c-1.03-.1-1.77.43-1.86,1.38-.09.95.49,2.09,1.52,2.19,1.03.1,2.19-.86,2.29-1.81.09-.95-.92-1.66-1.94-1.76ZM27.89,15.67c-1.03-.1-1.8.8-1.89,1.75s.53,1.7,1.56,1.8c1.03.1,2.04-.49,2.13-1.43.09-.95-.76-2.01-1.79-2.11ZM43.25,61.25c1.03.1,2.17-.75,2.26-1.69.09-.95-.89-1.79-1.92-1.89-1.03-.1-2.23.53-2.32,1.47-.09.95.95,2.01,1.98,2.11ZM26.54,59.29c1.03.1,2.22-.44,2.31-1.39.09-.95-1-1.5-2.03-1.6-1.03-.1-1.57.29-1.66,1.23-.09.95.35,1.65,1.38,1.75ZM32.1,60.06c1.03.1,1.74-.7,1.83-1.65.09-.95-.5-1.45-1.53-1.55-1.03-.1-1.56.28-1.65,1.23s.32,1.86,1.35,1.96ZM42.39,11.25c-1.03-.1-1.64.93-1.73,1.87-.09.95.37,1.45,1.4,1.55,1.03.1,1.77-.28,1.86-1.22.09-.95-.51-2.1-1.53-2.2ZM37.47,53.02c.09-.95-.68-1.68-1.71-1.78-1.03-.1-2.14.44-2.23,1.39-.09.95.92,1.5,1.94,1.61,1.03.1,1.9-.27,1.99-1.22ZM31.64,52.44c.09-.95-.41-1.95-1.43-2.06-1.03-.1-1.86.77-1.95,1.72-.09.95.57,1.88,1.6,1.99,1.03.1,1.7-.7,1.79-1.65ZM37.72,60.25c1.03.1,2.11-.3,2.2-1.25s-.85-2.01-1.88-2.12c-1.03-.1-1.6.81-1.69,1.76-.09.95.35,1.5,1.37,1.6ZM42.94,53.56c.09-.95-.57-1.72-1.6-1.83-1.03-.1-2.28.49-2.37,1.43-.09.95,1,2.05,2.03,2.16,1.03.1,1.85-.82,1.94-1.76ZM20.96,58.84c1.03.1,1.97-.57,2.06-1.51.09-.95-.68-2.06-1.71-2.16-1.03-.1-2.27.82-2.36,1.76-.09.95.98,1.81,2.01,1.92ZM16.47,46.83c1.03.1,1.89-.49,1.98-1.44.09-.95-.61-2.06-1.64-2.16s-1.65.88-1.74,1.83c-.09.95.37,1.68,1.39,1.78ZM13.13,52.29c1.03.1,2.03-.53,2.12-1.47.09-.95-.76-2.01-1.78-2.11-1.03-.1-2.13.77-2.22,1.71-.09.95.85,1.77,1.88,1.87ZM10.87,46.48c1.03.1,2.22-.67,2.32-1.62.09-.95-.98-1.51-2.01-1.61-1.03-.1-1.66.29-1.75,1.24-.09.95.41,1.89,1.44,1.99ZM18.71,52.89c1.03.1,2.27-.55,2.36-1.5.09-.95-1.02-1.71-2.05-1.81-1.03-.1-2.02.45-2.11,1.4-.09.95.77,1.81,1.8,1.91ZM24.29,53.41c1.03.1,1.84-.56,1.93-1.51.09-.95-.58-1.79-1.61-1.89s-1.84.59-1.93,1.54.58,1.76,1.61,1.86ZM10.43,38.85c.09-.95-.45-1.71-1.48-1.81s-1.7.54-1.79,1.48c-.09.95.47,1.5,1.49,1.6,1.03.1,1.68-.33,1.77-1.28ZM6.73,30.89c-1.03-.1-2.1.68-2.19,1.62-.09.95.82,1.82,1.85,1.92,1.03.1,1.97-.59,2.06-1.53.09-.95-.7-1.91-1.73-2.01ZM36.47,36.19c.09-.95-.73-3.06-1.82-2.78-1,.26-1.92.95-2.01,1.9-.09.95.62,1.84,1.64,1.94s2.1-.11,2.19-1.06ZM35.61,29.86c-.07.68.62,1.45,1.05,1.46.82.02,1.52-2.4,1.26-2.73-.6-.77-2.22.33-2.31,1.27ZM17.55,35.52c1.03.1,1.97-.56,2.06-1.51.09-.95-.72-1.62-1.75-1.73-1.03-.1-1.99.4-2.08,1.35-.09.95.74,1.79,1.77,1.89ZM41.27,22.96c-.96-.57-2.22.37-2.31,1.31-.04.42,0,1.43.64,1.33.55-.08,1.33-1.19,1.52-1.49s.46-.97.15-1.16ZM44.63,17.35c-1.03-.1-1.98.76-2.07,1.71-.08.84.61,1.69,1.36,1.68.75,0,2.25-1.27,2.35-1.63s-.73-1.66-1.64-1.75ZM35.73,22.1c-1.03-.1-1.72.9-1.81,1.84s.44,1.65,1.46,1.75c1.03.1,1.57-.49,1.66-1.44.09-.95-.29-2.05-1.32-2.16ZM29.07,32.86c-1.03-.1-2.12.92-2.21,1.87s.8,2.02,1.83,2.12c1.03.1,1.94-.8,2.03-1.74.09-.95-.62-2.15-1.65-2.25ZM38.74,49.48c1.03.1,2.4-.98,2.07-1.87-.2-.56-.64-1.04-.66-1.06-.31-.34-.59-.63-1.1-.68-1.03-.1-2.23.39-2.32,1.34s.98,2.17,2.01,2.27ZM48.69,54.13c.01-.13-.02-.24-.09-.35-.12.21-.42.23-.74.2-.38-.04-1.16-.63-1.34-.81-.34-.33-.38-.64-.31-.84,0,0,0,0-.01,0-.7,0-.97.68-1.04,1.45-.09.95.46,1.5,1.49,1.6,1.03.1,1.97-.3,2.06-1.25ZM15.29,29.71c1.03.1,2.25-.69,2.34-1.64.09-.95-.95-2.04-1.98-2.14-1.03-.1-2.03.79-2.12,1.74-.09.95.73,1.94,1.76,2.04ZM14.18,41.27c1.03.1,1.91-.9,2-1.85s-.63-1.71-1.65-1.81c-1.03-.1-1.57.54-1.66,1.48s.28,2.08,1.31,2.18ZM10.08,33.07c-.09.95.83,2.13,1.85,2.23s2.17-.88,2.26-1.82c.09-.95-.87-1.93-1.89-2.03-1.03-.1-2.13.68-2.22,1.63ZM32.36,27.89c-1.03-.1-2.26.47-2.35,1.41-.09.95,1.01,1.75,2.04,1.85,1.03.1,2.1-.48,2.19-1.43.09-.95-.85-1.73-1.88-1.83ZM33.12,41.1c.09-.95-.85-1.48-1.87-1.58s-2,.24-2.09,1.19c-.09.95.76,1.91,1.78,2.02,1.03.1,2.09-.68,2.18-1.62ZM27.46,40.54c.09-.95-.75-1.64-1.78-1.74-1.03-.1-1.92.42-2.01,1.37-.09.95.66,1.96,1.68,2.06,1.03.1,2.01-.73,2.1-1.68ZM27.65,47.67c1.03.1,2.22-.2,2.31-1.15.09-.95-1.02-1.51-2.04-1.62-1.03-.1-2.26.24-2.35,1.18-.09.95,1.06,1.48,2.09,1.58ZM33.23,48.25c1.03.1,1.57-.29,1.66-1.23.09-.95-.36-1.53-1.39-1.64-1.03-.1-2.22.32-2.31,1.27-.09.95,1.01,1.5,2.03,1.6ZM36.53,43.13c.72.07,1.23-.35,1.39-.76.15-.4-.08-2.37-.24-2.43s-.65-.16-.83-.17c-1.03-.1-1.75.57-1.84,1.52-.09.95.49,1.74,1.52,1.85ZM47.3,15.08c0-.45.66-1.62,1.27-1.84.34-.12.61-.14.82-.1-.24-.59-.75-1.07-1.45-1.14-1.03-.1-2.29.66-2.38,1.61-.08.86.83,1.44,1.77,1.62-.01-.05-.04-.11-.04-.15ZM22.04,47.47c1.03.1,2.27-.55,2.36-1.49s-.98-2.14-2-2.25c-1.03-.1-1.9.9-1.99,1.85s.6,1.79,1.63,1.89ZM30.16,21.47c-1.03-.1-2.04.95-2.13,1.89-.09.95.75,1.74,1.77,1.85,1.03.1,2.3-.49,2.39-1.43.09-.95-1-2.2-2.03-2.31ZM26.8,27.15c-1.03-.1-2,.68-2.09,1.62-.09.95.71,2.01,1.74,2.11s1.6-.82,1.69-1.77-.31-1.86-1.33-1.97ZM21.13,34.16c-.09.95.99,1.66,2.02,1.77,1.03.1,1.93-.42,2.02-1.37.09-.95-.68-1.84-1.71-1.94s-2.24.59-2.33,1.54ZM24.53,21.37c-1.03-.1-1.56.53-1.65,1.47-.09.95.32,1.53,1.35,1.64,1.03.1,1.72-.37,1.81-1.32.09-.95-.49-1.69-1.52-1.79ZM21.21,26.7c-1.03-.1-2.02.57-2.11,1.52s.77,1.7,1.79,1.81c1.03.1,1.73-.5,1.82-1.45.09-.95-.47-1.78-1.5-1.88ZM19.81,41.3c1.03.1,2.06-.36,2.15-1.31.09-.95-.82-1.72-1.85-1.82-1.03-.1-2.08.48-2.17,1.43-.09.95.84,1.61,1.87,1.71ZM19.8,62.75c.09-.95-.86-1.51-1.89-1.61-1.03-.1-1.79.29-1.88,1.23-.09.95.56,1.78,1.59,1.88,1.03.1,2.09-.56,2.18-1.51ZM17.13,56.75c.09-.95-.42-1.62-1.44-1.72-1.03-.1-2.28.4-2.37,1.34-.09.95,1.04,1.79,2.06,1.89,1.03.1,1.66-.56,1.75-1.51ZM20.22,66.52c-.82-.08-1.76.68-1.64,1.13.12.45,2.35,1.42,2.76,1.42s.92-.15.94-.37c.09-.95-1.03-2.08-2.05-2.18ZM12.35,60.52c-.94-.09-1.73.35-1.73,1.13,0,.6.86,2.03,1.86,2.03.78,0,1.51-.69,1.59-1.5.09-.95-.69-1.56-1.72-1.66ZM30.75,63.84c.09-.95-.65-1.49-1.68-1.6-1.03-.1-1.87.29-1.96,1.24-.09.95.64,1.76,1.66,1.86,1.03.1,1.88-.56,1.97-1.5ZM25.19,63.29c.09-.95-.63-1.94-1.65-2.04-1.03-.1-2.06.71-2.15,1.66-.09.95.75,2.17,1.78,2.28,1.03.1,1.94-.95,2.03-1.9ZM2.44,43.99c.06-.55.23-2.82-1.6-2.5-.15.03-.45.12-.47.6-.02.8.44,2.42.83,2.53.39.11,1.2-.28,1.24-.63ZM2.64,47.36c-.23.02-.52,0-.52.19s.43,2.53,1.41,2.94c.28.12.19-.51.53-.8,1.41-1.18-.65-2.4-1.42-2.34ZM11.59,56.2c.09-.95-.44-1.78-1.47-1.88s-1.64.61-1.73,1.56.36,1.91,1.39,2.01c1.03.1,1.72-.74,1.81-1.69ZM5.31,45.77c1.03.1,2.21-.52,2.3-1.47.09-.95-.93-2-1.96-2.11-1.03-.1-1.99.84-2.08,1.79-.09.95.71,1.68,1.74,1.78ZM1.06,37.92c-.09.95.97,1.78,2,1.88,1.03.1,2.18-.51,2.27-1.46.09-.95-.89-2.11-1.92-2.21-1.03-.1-2.26.84-2.35,1.79ZM9.83,50.27c.09-.95-.9-2.06-1.93-2.16-1.03-.1-1.75.84-1.84,1.78s.46,1.8,1.49,1.9c1.03.1,2.19-.58,2.28-1.53ZM6.05,53.8c-.12-.06-1.02-.04-1.22.17-.36.38.93,2.36,1.39,2.31.21-.02.84-.09.93-.48.22-.94-.46-1.68-1.11-1.99ZM25.75,67.65c-1.03-.1-1.65.32-1.74,1.27-.04.46-.03.67.25,1.04.28.36,1.47.98,2.08.75s1.18-.78,1.25-1.43c.09-.95-.81-1.52-1.84-1.62ZM57.06,56.55c-.08.07-.27.13-.51.17.21.17.45.29.68.31.91.09,2.08-.12,2.21-.76.12-.6-.19-.72-.56-.78-.65-.11-1.49-.21-2.08-.16.03.01.07.03.1.04.31.18.47.88.15,1.17ZM51.21,60.13c.09-.95-1.04-1.49-2.07-1.6-1.03-.1-1.69.27-1.78,1.21-.09.95.47,1.65,1.5,1.75,1.03.1,2.26-.42,2.35-1.37ZM51.39,64.44c-1.03-.1-2.13.28-2.22,1.23-.06.66.53,1.6,1.08,1.56.55-.04,2.46-.8,2.63-1.39.17-.59-.5-1.3-1.5-1.4ZM54.76,58.68c-1.03-.1-1.83.39-1.92,1.33,0,.05,0,.1,0,.15.88-.24,1.93.2,2.35.99.15.28.18.64.14.99.75-.16,1.34-.72,1.41-1.46.09-.95-.97-1.9-1.99-2ZM61.5,60.16c-.06-.29-.45-.86-1.07-.97.14.72-.17,1.42-.9,1.79-.45.23-.95.28-1.4.17.07.63.47,1.41,1.03,1.38,1.2-.07,2.4-2.06,2.34-2.36ZM31.33,68.11c-1.03-.1-1.79.37-1.88,1.26-.08.8.48,1.21,1.35,1.42.29.02.48.05.76.07.77-.14,1.71-.41,1.79-1.13.09-.89-.99-1.53-2.01-1.63ZM62.96,54.96c.75-.37,1.55.04,2.07.68.04-.72-.23-1.47-.87-1.47-.67,0-1.9.33-2.13.57-.23.25-.42.53-.43.67-.04.39.09.76.31,1.07.12-.64.49-1.26,1.04-1.53ZM36.55,64.42c.09-.95-.8-2.18-1.83-2.28-1.03-.1-2.28.92-2.37,1.86-.09.95.97,1.97,2,2.07,1.03.1,2.12-.71,2.21-1.65ZM36.94,68.2c-1.03-.1-1.97.62-2.06,1.52-.04.44.14.78.73,1.01s1.91.14,2.35-.02c.44-.16.41-.48.43-.66.09-.89-.42-1.75-1.45-1.85ZM45.82,63.87c-1.03-.1-1.98.32-2.07,1.26-.09.95.73,1.94,1.76,2.05s2.31-.69,2.4-1.64c.09-.95-1.05-1.57-2.08-1.67ZM42.59,68.7c-.99-.1-1.65.62-1.88,1.09-.25.53.43.87.97.79.78-.12,2.73-.6,2.64-1.26-.09-.63-1.24-.57-1.73-.62ZM54.04,55.59c.27-.58-1.11-.77-1.73-.98-.54-.18-1.61-.63-1.91-.33-.17.16-.2.39-.13.63.84-.08,1.79.48,2.19,1.21.06.12.11.24.14.37.64-.13,1.31-.59,1.45-.9ZM41.86,64.94c.09-.95-.54-2-1.57-2.1-1.03-.1-2.32.76-2.41,1.71s1.06,1.6,2.09,1.7c1.03.1,1.81-.36,1.9-1.31ZM48.73,3.9c1.2.72,3.1.72,2.91.02-.13-.48-4.47-2.37-4.39-1.63.08.73.6,1.08,1.48,1.61ZM38.31,7.15c-.09.95.43,2.02,1.46,2.12,1.03.1,1.87-.84,1.96-1.78s-.56-1.97-1.59-2.07c-1.03-.1-1.73.78-1.82,1.73ZM43.61,7.67c-.09.95.72,2,1.74,2.1,1.03.1,2-.77,2.09-1.72.09-.95-.69-2.13-1.71-2.23-1.03-.1-2.03.9-2.12,1.85ZM43.14,3.45c1.03.1,1.96-.42,2.05-1.37.02-.22.06-.69-.14-.97s-2.33-.6-3.06-.36c-.26.08-.38.55-.42.97-.09.95.54,1.62,1.56,1.72ZM32.71,6.59c-.09.95.46,1.87,1.49,1.97,1.03.1,1.85-.68,1.95-1.63.09-.95-.6-1.61-1.63-1.71s-1.72.43-1.81,1.37ZM37.52,3.26c1.03.1,2.07-.78,2.17-1.72.05-.55-.42-1.13-.78-1.32-.36-.19-1.75-.3-2.14-.12s-.7.5-.76,1.08c-.09.95.49,1.99,1.52,2.09ZM48.95,8.2c-.09.95.94,2.16,1.97,2.26.06,0,.12,0,.18,0,.15-.4.43-.75.84-.95.2-.1.42-.15.63-.17.11-.24.18-.5.21-.75.09-.95-.5-1.5-1.53-1.6-1.03-.1-2.21.28-2.3,1.22ZM61.83,11.57c.43,0-.06-.73-.26-.95-.37-.42-.99-.92-1.15-.88-.41.1-.49.67-.36.92.22.41.91.92,1.77.92ZM2.78,32.34c.1-.95-.42-1.64-1.59-1.75-.22-.02-.81,0-.99.47C.02,31.52,0,32.38,0,33.02s.15.78.68.88c1.15.21,1.99-.61,2.1-1.56ZM65.89,16.73c0-.37.14-.77,0-.99-.39-.61-1.09-1.74-1.72-1.88-.63-.14-1.59.65-1.5,1.45.09.85,1.35,1.63,2.37,1.83.28.06.85-.04.85-.41ZM58.89,14.53c-.19-.36-.2-.77-.09-1.15-.9-.05-1.62.15-1.62.96,0,.9.26,1,1.73,1.08.75.04,1.63-.05,1.8-.11.07-.02.09-.06.09-.12-.76.17-1.55.02-1.91-.66ZM56.44,10.38c.44.04.82-.08,1.12-.3-.49,0-.92-.18-1.19-.69-.4-.74-.21-1.69.39-2.26,0,0,0,0,0,0-1.03-.1-1.59.36-1.68,1.31s.34,1.85,1.37,1.95ZM54.55,14.39c.29-.14.63-.17.97-.13-.17-.75-1.13-1.21-2.03-1.3-1.03-.1-2.11.28-2.2,1.22-.08.8.93,1.43,1.47,1.56.17.04.42.06.68.07-.57-.15.65-1.19,1.11-1.42ZM32,2.14c1.03.1,1.73-.11,1.94-.7.16-.44.15-.96-.33-1.25-.48-.29-2.46-.16-2.73-.03-.27.13-.52.29-.54.57-.09.95.64,1.3,1.66,1.41ZM5.71,21.14c-.09.95.74,1.85,1.76,1.96,1.03.1,1.82-.64,1.91-1.59.09-.95-.55-1.77-1.58-1.87-1.03-.1-2.01.56-2.1,1.51ZM5.34,17.3c.65.12,2.12-.8,2.21-1.74.05-.49-.14-1.73-.89-1.54-.75.2-1.48,1.86-1.6,2.37s.03.86.29.91ZM8.87,11.87c.13.03.71.11,1.12-.05.68-.27,1.17-1.18,1.47-1.85.08-.18.14-.42-.17-.48-1.5-.27-1.89.4-2.35,1.19-.05.09-.4,1.1-.06,1.19ZM3.66,22.67c.36-.39.49-1.73.53-2.2.04-.38-.22-.61-.52-.7-.29-.1-.5.1-.59.25-.26.47-.88,1.32-.96,1.74-.27,1.44,1.34,1.11,1.54.9ZM9.45,15.77c-.09.95.31,2.05,1.33,2.15,1.03.1,2.3-.84,2.39-1.78s-1.01-1.81-2.04-1.91c-1.03-.1-1.6.59-1.69,1.54ZM2.76,26.59c-.09.95.36,1.67,1.39,1.77,1.03.1,1.79-.5,1.88-1.44s-.53-1.88-1.56-1.99c-1.03-.1-1.63.71-1.72,1.66ZM26.36,2.16c1.03.1,2.09-.43,2.09-1.74,0-.28-.39-.26-1.06-.32-.75-.07-2.33.29-2.63.66-.69.88.86,1.32,1.6,1.4ZM14.17,11.96c1.03.1,2.2-.29,2.29-1.24.09-.95-.97-1.71-2-1.81-1.03-.1-1.58.58-1.67,1.52-.09.95.36,1.42,1.38,1.52ZM23.07,7.21c1.03.1,2.03-.42,2.12-1.36.09-.95-.81-1.5-1.84-1.6-1.03-.1-1.54.31-1.63,1.26-.09.95.32,1.61,1.35,1.71ZM26.65,5.99c-.09.95.93,2.06,1.95,2.16,1.03.1,2.1-.8,2.19-1.75.09-.95-.81-1.89-1.83-1.99-1.03-.1-2.22.63-2.31,1.58ZM18.17,10.89c-.09.95.54,1.6,1.57,1.71,1.03.1,1.69-.43,1.78-1.37.09-.95-.43-1.89-1.46-1.99s-1.8.71-1.89,1.66ZM17.44,7.17c1.03.1,2-.94,2.09-1.89.08-.84-.82-1.91-1.41-1.91s-2.21.81-2.54,1.46.85,2.23,1.86,2.34Z" fill="#00aa71"/><path d="M61.92,56.49c.12-.64.49-1.26,1.04-1.53.75-.37,1.55.04,2.07.68,0,.04,0,.08,0,.11-.09.95-.66,1.63-1.69,1.53-.6-.06-1.11-.37-1.43-.8ZM55.2,61.15c-.42-.79-1.48-1.23-2.35-.99,0,.91.88,1.94,1.86,2.03.22.02.43,0,.64-.05.04-.35,0-.71-.14-.99ZM50.26,54.91c.18.7,1.14,1.55,1.89,1.63.14.01.29-.02.44-.05-.03-.12-.08-.25-.14-.37-.39-.73-1.35-1.29-2.19-1.21ZM56.55,56.72c.24-.04.43-.1.51-.17.32-.29.15-.99-.15-1.17-.03-.02-.07-.03-.1-.04-.3.02-.54.08-.65.2-.3.33-.02.85.4,1.18ZM59.53,60.97c.74-.37,1.04-1.07.9-1.79-.03,0-.05-.02-.09-.03-1.03-.1-2.14.71-2.23,1.66,0,.1,0,.21.01.32.45.11.94.06,1.4-.17ZM46.51,53.17c.19.18.97.77,1.34.81.32.03.62.01.74-.2-.04-.08-.09-.15-.18-.25-.22-.24-1.51-1.19-2.21-1.2-.07.2-.03.51.31.84ZM56.37,9.38c.27.51.7.7,1.19.69.41-.3.68-.78.73-1.33.04-.47.04-.89-.26-1.23-.2-.15-.45-.21-.66-.36-.2-.1-.38-.02-.62-.04-.6.57-.78,1.52-.39,2.26ZM54.88,15.65c.38-.22.63-.71.66-1.05.01-.12,0-.23-.02-.34-.34-.04-.68-.01-.97.13-.46.23-1.68,1.27-1.11,1.42.55.03,1.18-.01,1.44-.16ZM48.58,13.24c-.61.22-1.27,1.39-1.27,1.84,0,.05.03.1.04.15.1.02.2.04.3.05,1.03.1,1.82-.32,1.91-1.27.03-.3-.04-.59-.15-.87-.21-.04-.48-.02-.82.1ZM51.09,10.46c.67-.02,1.2-.52,1.47-1.13-.21.02-.43.07-.63.17-.42.21-.69.56-.84.95ZM60.72,14.84c-.07-.26-.61-1.34-1.64-1.44-.1,0-.19-.01-.28-.02-.11.38-.1.79.09,1.15.36.68,1.15.83,1.91.66,0-.08-.05-.2-.09-.35Z" fill="#58ba00"/><path d="M71.44,48.23c0-.6,1.21-2.33,1.79-2.67.58-.34.96-.03,1.1.91.14.94-.75,1.91-1.68,2.37-.32.16-1.21,0-1.21-.6ZM70.04,55.84c.92-.46,1.29-1.59.82-2.48-.47-.89-1.47-.92-2.39-.46-.92.46-1.28,1.15-.8,2.04.47.89,1.46,1.36,2.38.9ZM75.91,17.19c-.92.46-1.81,1.45-1.34,2.34s1.84.76,2.76.3c.92-.46,1.44-1.28.97-2.16s-1.47-.94-2.39-.48ZM78.35,21.74c-.92.46-1.3,1.82-.82,2.71.47.89,1.63.99,2.55.53.92-.46,1.46-1.41.99-2.29-.47-.89-1.79-1.41-2.71-.95ZM73.23,12.18c-.92.46-1.61,1.3-1.13,2.18.47.89,1.6.83,2.52.37.92-.46,1.29-1.13.81-2.02-.47-.89-1.27-.99-2.19-.53ZM91.71,21.97c-.92.46-1.75,1.58-1.27,2.47.47.89,1.85.77,2.77.31.92-.46,1.78-1.47,1.3-2.36-.47-.89-1.88-.88-2.8-.42ZM94.12,14.05c-.92.46-1.32,1.68-.85,2.57.47.89,1.52.87,2.44.41.92-.46,1.5-1.24,1.03-2.13-.47-.89-1.7-1.3-2.62-.84ZM88.93,16.74c-.92.46-1.37,1.59-.9,2.48.47.89,1.54.89,2.46.43.92-.46,1.64-1.35,1.16-2.23s-1.8-1.13-2.73-.68ZM83.81,19.57c-.92.46-1.74,1.5-1.26,2.39.47.89,1.98,1.14,2.9.68.92-.46.95-1.47.48-2.36-.47-.89-1.2-1.17-2.12-.71ZM81.05,14.39c-.92.46-1.18,1.36-.71,2.25.47.89,1.45,1.32,2.37.86s1.52-1.67,1.05-2.56c-.47-.89-1.79-1.01-2.71-.55ZM86.14,11.5c-.92.46-1.3,1.78-.82,2.67.47.89,1.8,1.38,2.72.92.92-.46.99-1.63.51-2.52-.47-.89-1.49-1.53-2.41-1.07ZM93.7,50.5c.92-.46,1.03-1.48.55-2.37-.47-.89-1.35-1.33-2.28-.87s-1.73,1.74-1.26,2.63c.47.89,2.06,1.07,2.98.61ZM90.91,57.65c.92-.46,1.45-1.07.98-1.96-.47-.89-1.48-1.13-2.4-.67s-1.38,1.41-.9,2.3c.47.89,1.4.78,2.32.32ZM98.79,47.61c.92-.46,1.17-1.2.69-2.09s-1.44-1.5-2.36-1.04c-.92.46-1.11,1.62-.64,2.51.47.89,1.38,1.07,2.3.61ZM75.24,53.15c.92-.46,1.54-1.62,1.06-2.51-.47-.89-1.78-1.02-2.7-.56-.92.46-1.74,1.67-1.27,2.56.47.89,1.99.97,2.91.51ZM96.41,55.58c.92-.46,1.17-1.59.7-2.48s-1.58-1.37-2.5-.91c-.92.46-1.08,1.55-.6,2.44.47.89,1.48,1.41,2.4.95ZM104.06,45.07c.92-.46,1.6-1.5,1.12-2.39-.47-.89-1.97-1.39-2.89-.93-.92.46-1.13,1.8-.65,2.69.47.89,1.5,1.09,2.42.63ZM101.38,52.46c.92-.46,1.43-1.07.96-1.96-.47-.89-1.43-1.08-2.36-.63-.92.46-1.18,1.24-.7,2.13.47.89,1.18.91,2.1.46ZM96.7,18.86c-.92.46-.96,1.8-.49,2.69s1.52,1.47,2.44,1.01c.92-.46,1.35-1.77.88-2.66-.47-.89-1.91-1.5-2.83-1.04ZM77.9,58.14c.92-.46,1.05-1.26.57-2.15-.47-.89-1.37-1.54-2.29-1.08-.92.46-1.19,1.67-.71,2.56.47.89,1.51,1.13,2.43.67ZM80.35,50.3c.92-.46,1.35-1.2.87-2.08-.47-.89-1.56-1.38-2.48-.92s-1.07,1.54-.59,2.43c.47.89,1.28,1.03,2.2.57ZM88.53,53.24c.92-.46.9-1.59.43-2.47-.47-.89-1.49-1.74-2.41-1.28-.92.46-1.49,2.09-1.01,2.98.47.89,2.07,1.23,3,.78ZM85.92,60.75c.92-.46,1.36-1.64.89-2.53-.47-.89-1.69-1.16-2.61-.7s-1.56,1.66-1.08,2.54c.47.89,1.88,1.15,2.8.69ZM83.15,55.57c.92-.46,1.46-1.53.98-2.42s-1.57-.84-2.49-.38c-.92.46-1.62,1.31-1.15,2.2s1.73,1.06,2.65.6ZM86.45,24.52c-.92.46-1.49,1.5-1.01,2.39.47.89,1.71,1.08,2.63.62.92-.46,1.51-1.57,1.04-2.46-.47-.89-1.73-1.02-2.65-.56ZM76.46,32.61c.34.29.86.17,1.09.06.92-.46,1.36-1.38.89-2.27-.41-.77-1.84-1.55-2.38-.99-.54.56.06,2.92.4,3.21ZM103.93,32.42c.92-.46,1.32-1.44.85-2.33-.47-.89-1.72-1.5-2.64-1.04s-1.36,1.9-.88,2.79c.47.89,1.75,1.03,2.67.58ZM99.55,24.21c-.92.46-1.06,1.47-.58,2.36.47.89,1.36,1.29,2.28.83s1.35-1.5.88-2.39c-.47-.89-1.66-1.26-2.58-.8ZM104.7,21.43c-.92.46-1.58,1.97-1.1,2.86.47.89,2.06,1.15,2.98.69.92-.46,1.41-1.77.93-2.66-.47-.89-1.89-1.35-2.81-.89ZM80.41,38.04c.92-.46,1.33-1.77.85-2.66-.47-.89-1.77-1.26-2.69-.8-.92.46-1.16,1.59-.68,2.48.47.89,1.6,1.44,2.52.98ZM77.78,45.5c.92-.46,1.14-1.41.66-2.3-.47-.89-1.35-1.17-2.27-.71-.92.46-1.16,1.27-.68,2.16.47.89,1.37,1.31,2.29.85ZM111.62,26.69c.3.57,1.22.97,1.45.61.23-.37.37-2.61-.26-2.98-.18-.1-.62-.12-.84.05-1.03.79-.67,1.7-.34,2.32ZM106.63,37.48c.92-.46,1.12-1.34.65-2.23s-1.39-1.35-2.31-.89c-.92.46-1.7,1.76-1.22,2.65.47.89,1.96.92,2.89.47ZM62.06,57.74c.47.89,1.63.78,2.55.32.92-.46,1.21-1.06.74-1.95-.09-.17-.2-.32-.32-.47,0,.04,0,.08,0,.11-.09.95-.66,1.63-1.69,1.53-.6-.06-1.11-.37-1.43-.8-.08.44-.05.89.14,1.25ZM106.88,50.37c.92-.46,1.35-1.69.87-2.58-.47-.89-1.85-1.48-2.77-1.02-.92.46-1.44,2-.96,2.89.47.89,1.95,1.17,2.87.71ZM69.4,17.38c.92-.46,1.13-1.1.65-1.99-.47-.89-1.37-1.53-2.29-1.07-.92.46-1.41,1.78-.94,2.67.47.89,1.65.85,2.57.39ZM72.71,22.22c.59,0,.78-1.28.41-1.97-.47-.89-1.29-1.67-2.21-1.21-.1.05-.32.65-.32.92s1.54,2.26,2.13,2.26ZM109.08,29.65c.92-.46,1.41-1.29.94-2.18s-1.55-1.14-2.47-.68c-.92.46-1.17,1.36-.7,2.25s1.31,1.07,2.23.61ZM74.55,24.16c-.37.22-.33.79-.22,1.09.33.92.79,1.94,1.19,1.94.53,0,1.28-.9.95-1.54-.32-.6-1.54-1.72-1.91-1.5ZM96.29,42.95c.92-.46.99-1.6.51-2.49-.47-.89-1.23-1.02-2.15-.56s-1.77,1.39-1.3,2.28c.47.89,2.01,1.24,2.93.78ZM90.77,44.99c.92-.46,1.47-1.14.99-2.03-.47-.89-1.67-1.41-2.59-.95-.92.46-1.45,1.83-.98,2.72.47.89,1.65.71,2.57.26ZM94.33,35.29c-.47-.89-1.52-1.05-2.45-.6-.92.46-1.77,1.58-1.3,2.47.47.89,1.87.75,2.79.29s1.43-1.28.96-2.17ZM87.92,32.09c.47.89,1.78.67,2.7.21.92-.46,1.78-1.33,1.3-2.22-.47-.89-2.01-1.29-2.93-.83-.92.46-1.54,1.95-1.07,2.84ZM101.33,39.96c.92-.46,1.72-1.51,1.24-2.4-.47-.89-1.98-1.16-2.9-.7-.92.46-1.19,1.61-.71,2.5.47.89,1.44,1.06,2.36.6ZM98.65,34.94c.92-.46,1.28-1.31.81-2.19-.47-.89-1.45-1.18-2.37-.72s-1.28,1.4-.8,2.29c.47.89,1.45,1.09,2.37.63ZM96.11,30.21c.92-.46,1.3-1.74.83-2.63-.47-.89-1.76-1.33-2.68-.87-.92.46-1.15,1.65-.68,2.54s1.61,1.42,2.53.96ZM88.34,40.47c.92-.46,1.44-1.8.97-2.69-.47-.89-1.92-1.31-2.84-.85-.92.46-1.46,1.88-.98,2.77.47.89,1.94,1.23,2.86.77ZM81.27,27.24c-.92.46-1.51,1.38-1.04,2.27.47.89,1.83,1.4,2.75.94.92-.46,1.14-1.75.67-2.64-.47-.89-1.46-1.03-2.38-.57ZM83.98,32.31c-.92.46-1.73,1.48-1.26,2.37.47.89,1.73.66,2.65.2.92-.46,1.46-1.13.99-2.01-.47-.89-1.46-1.01-2.38-.55ZM83.1,43.07c.92-.46,1.38-1.76.9-2.65-.47-.89-1.74-1.12-2.66-.66s-1.72,1.73-1.24,2.62c.47.89,2.08,1.15,3,.69ZM85.83,48.19c.92-.46,1.35-1.84.88-2.73-.47-.89-1.77-1.15-2.69-.69-.92.46-1.49,1.66-1.02,2.55s1.91,1.33,2.83.87ZM87.85,2.2c.28-.14.4-.34.26-.69-.34-.8-2.51-1.07-2.84-.86-.33.21-.42.56-.3.79.47.89,1.96,1.22,2.88.76ZM73.81,58.28c-.47-.89-2.03-1.41-2.96-.95-.92.46-1.4,2-.92,2.89.47.89,1.91,1.18,2.83.72s1.52-1.77,1.04-2.66ZM76.4,63.39c-.47-.89-1.71-1.03-2.63-.57-.92.46-1.41,1.45-.93,2.34.47.89,1.5.88,2.42.42.92-.46,1.62-1.31,1.14-2.2ZM68.63,65.62c-.92.46-.63,1.13-.16,2.01.47.89.89,1.55,1.82,1.09.92-.46,1.52-1.92,1.04-2.81-.47-.89-1.78-.75-2.7-.29ZM76.39,67.72c-.92.43-1.65,1.66-1.17,2.49.11.19.42.56.76.59.34.03,1.45.14,2.18,0,.73-.14,1.55-1.66,1.08-2.48-.47-.83-1.93-1.03-2.85-.6ZM81.5,60.86c-.47-.89-1.5-.94-2.42-.48-.92.46-1.6,1.36-1.12,2.25.47.89,1.81,1.23,2.74.77.92-.46,1.28-1.64.81-2.53ZM68.36,61c-.47-.89-1.82-1.52-2.74-1.06-.92.46-1.06,1.82-.59,2.71.47.89,1.52,1.25,2.44.79s1.36-1.55.88-2.44ZM64.42,66.88c-.33-.04-.71.12-.9.2-.52.24-.08.73.1.89.55.47.97.93,2.35,1.29.33.09,1.03-.19.56-1.2-.21-.44-1.25-1.07-2.11-1.18ZM52.84,60.16c-.11.03-.21.06-.31.11-.28.14-.35.41-.14.97.13.35,2,2.06,2.43,1.93.26-.08.46-.53.51-1.03-.2.04-.42.07-.64.05-.98-.1-1.85-1.12-1.86-2.03ZM50.26,54.91c-.18.02-.35.05-.51.13-.66.33-1.11,1.35-1.13,2.04.3.52.97.73,1.26,1.17.56.27,1.11.58,1.72.28.8-.4,1.2-1.24.99-2.04-.15.03-.3.06-.44.05-.75-.07-1.71-.93-1.89-1.63ZM55.14,56.63c.38.15.98.16,1.41.08-.42-.33-.7-.86-.4-1.18.11-.12.35-.18.65-.2-.56-.23-1.9-.18-2.1-.02-.2.18.19,1.22.44,1.32ZM109.89,40.35c-.47-.89-1.27-1.32-2.19-.86-.92.46-1.27,1.44-.79,2.32.47.89,1.4.97,2.32.52.92-.46,1.14-1.09.66-1.98ZM63.21,63.56c-.47-.89-1.65-.96-2.57-.5-.92.46-1.69,1.51-1.22,2.4.47.89,1.69.63,2.61.17.92-.46,1.65-1.18,1.18-2.06ZM60.35,59.16s.05.02.09.03c-.04-.18-.08-.36-.17-.54-.47-.89-1.36-1.02-2.28-.56-.92.46-1.43,1.32-.96,2.21.24.45.65.73,1.11.85-.01-.11-.02-.23-.01-.32.09-.95,1.2-1.76,2.23-1.66ZM89.51,63.27c-.47-.89-1.87-1.49-2.79-1.04-.92.46-1.21,1.9-.74,2.79.47.89,1.78,1.39,2.7.93.92-.46,1.3-1.8.82-2.69ZM100.12,62.52c-.92.46-1.41,1.45-.94,2.33.22.41.43.46.87.55,1.01.2,2.47-1,2.63-1.55.07-.23.06-.55-.03-.72-.47-.89-1.6-1.07-2.52-.61ZM107.79,52.06c-.92.46-1.67,1.84-1.2,2.73.41.77,1.76,1.07,2.29.79.82-.43,1.74-1.98,1.68-2.89-.06-.92-1.92-1.05-2.77-.62ZM104.31,57.98c.92-.46,1.48-1.69,1.01-2.58-.47-.89-1.86-1.22-2.78-.76-.92.46-1.37,1.7-.89,2.59s1.74,1.2,2.67.74ZM105,59.2c-.69.34-1.64.95-1.53,2.23.02.2.47.89.84.82s1.89-1.97,2.01-2.66c.12-.69-.94-.58-1.33-.39ZM110.47,44.69c-.92.46-1.45,1.35-.97,2.24.44.83,1.92,1.28,2.45.82s.62-2.54.32-3.04c-.3-.49-1.1-.36-1.79-.02ZM113.09,37.1c-.55-.38-.76-.28-.93-.2-.99.46-1.4,1.59-.89,2.48.26.45.96.93,1.24.67.27-.26,1.41-2.38.58-2.95ZM90.06,67.69c-.46.23-1.43.79-1.63,1.33-.18.49.37.95.63,1.11.56.33,2.78-.68,2.99-.87.36-.32.46-.76.33-1.01-.47-.89-1.4-1.02-2.32-.56ZM48.6,53.78c.05-.08.07-.17.07-.3-.04-.96-2.09-1.38-2.3-1.34-.07.01-.13.09-.16.2.7.01,1.99.96,2.21,1.2.09.1.14.17.18.25ZM83.71,69.45c-.21.11-1.02,1.06-.58,1.27.68.33,3.03.01,3.39-.26s-.05-.88-.21-1.06c-.34-.38-2.17-.17-2.61.05ZM94.89,65.15c-.92.46-1.46,1.45-.99,2.34.22.41.71.97,1.05.97s2.35-.65,2.57-1.1-.16-.97-.42-1.45c-.47-.89-1.29-1.22-2.21-.76ZM94.93,60.57c-.47-.89-1.89-1.07-2.81-.61-.92.46-1.52,1.66-1.05,2.54.47.89,1.89,1.22,2.81.76.92-.46,1.53-1.81,1.05-2.7ZM100.04,58.03c-.47-.89-1.76-1.13-2.68-.67-.92.46-1.18,1.46-.71,2.35.47.89,1.58,1.48,2.5,1.02.92-.46,1.37-1.81.89-2.7ZM84,66.02c-.47-.89-1.32-1.09-2.24-.63s-1.84,1.55-1.37,2.44c.47.89,2.01.94,2.93.48.92-.46,1.16-1.39.68-2.28ZM94.65,5.28c1.02,0,.97-.55.82-.89-.15-.35-1.72-1.68-2.17-1.55s-.57.93-.43,1.2c.47.89,1.4,1.25,1.77,1.25ZM98.7,13.91c.47.89,1.4,1.1,2.32.64.92-.46,1.47-1.4,1-2.29-.47-.89-1.6-1-2.52-.54-.92.46-1.27,1.3-.8,2.19ZM90.49,11.61c.47.89,1.83,1.26,2.75.8s1.11-1.59.64-2.48c-.47-.89-1.57-1.47-2.49-1.01-.92.46-1.37,1.8-.9,2.69ZM98.26,9.37c.92-.46,1.72-1.37,1.25-2.26-.47-.89-1.89-1.11-2.81-.65-.92.46-1.21,1.52-.74,2.41.47.89,1.37.96,2.3.5ZM82.48,4.65c.92-.46,1.69-1.58,1.22-2.47-.47-.89-1.93-1.06-2.86-.6-.92.46-1.7,1.76-1.22,2.65.47.89,1.94.88,2.87.42ZM87.89,6.5c.47.89,1.65,1.16,2.57.7.92-.46,1.35-1.53.87-2.41-.47-.89-1.76-1.46-2.68-1s-1.24,1.82-.76,2.71ZM82.68,9.09c.47.89,1.61,1.15,2.53.69s1.07-1.34.6-2.23c-.47-.89-1.31-1.29-2.24-.84-.92.46-1.37,1.49-.89,2.38ZM111.81,34.76c.92-.46,1.3-1.42,1.29-2.42-.02-1.22-1.84-.78-2.76-.32-.92.46-1.81,1.49-1.33,2.38.47.89,1.89.82,2.81.36ZM108.92,21.63c.47.89,2.44.74,2.7.56.25-.17.35-.26.35-.94s-1.3-2.34-1.48-2.43-.37-.06-.54.02c-.92.46-1.49,1.9-1.02,2.79ZM105.13,12.37c.13-.01.43-.14.43-.44s-1.14-2.17-1.82-2.23c-.68-.05-.91.24-.99.77-.19,1.28,1.31,2.02,2.38,1.9ZM102.1,16.59c-.92.46-1.25,1.52-.77,2.41.47.89,1.36.87,2.29.41s1.58-1.2,1.11-2.09c-.47-.89-1.7-1.18-2.62-.72ZM108.99,17.07c.15-.07.29-.34.23-.7s-1.48-2.59-2.02-2.68c-.54-.09-1.28,1.9-.8,2.79.47.89,1.67,1.05,2.6.59ZM69.4,4.99c.92-.46,1.62-1.78,1.14-2.67-.47-.89-1.81-.75-2.73-.29s-1.24,1.14-.76,2.03c.47.89,1.43,1.39,2.35.93ZM57.38,7.16c.21.15.46.21.66.36.31.34.31.76.26,1.23-.05.54-.32,1.03-.73,1.33.36,0,.76-.12,1.15-.32.92-.46,1.45-1.13.98-2.02s-1.63-1.38-2.56-.92c-.15.07-.26.2-.37.31.24.02.42-.06.62.04ZM77.03,11.92c.47.89,2.02.89,2.94.43.92-.46,1.53-1.55,1.05-2.44-.47-.89-1.96-1.46-2.88-1.01-.92.46-1.59,2.12-1.11,3.01ZM56.81,14.99c-.03-.33-.63-.66-1.28-.73.02.11.03.22.02.34-.03.35-.28.83-.66,1.05-.26.15-.89.19-1.44.16.01,0,.01.01.02.01,1.47.27,3.39-.34,3.34-.84ZM47.64,15.28c-.1,0-.2-.03-.3-.05.09.43.55.96,1.09.82,1.24-.32,1.98-1.06,1.4-2.62-.05-.14-.2-.25-.43-.29.11.28.18.57.15.87-.09.95-.88,1.37-1.91,1.27ZM64.2,7.66c.92-.46,1.39-1.73.91-2.62-.47-.89-1.88-1.4-2.8-.94-.92.46-1.21,1.82-.74,2.71.47.89,1.7,1.32,2.62.86ZM51.09,10.46c-.18.48-.18,1.02.08,1.51.47.89,1.72.87,2.64.41.92-.46,1.09-1.14.62-2.03-.37-.69-1.12-1.09-1.86-1.03-.28.61-.81,1.11-1.47,1.13ZM58.8,13.38c.09,0,.18,0,.28.02,1.03.1,1.57,1.18,1.64,1.44.04.15.09.27.09.35.23-.05.46-.13.68-.24.92-.46,1.39-1.28.91-2.17-.47-.89-1.55-1.19-2.47-.73-.54.27-.96.77-1.12,1.32ZM74.49,6.78c.47.89,1.78.85,2.71.39.92-.46,1.7-1.47,1.22-2.36-.47-.89-1.95-1.18-2.87-.72s-1.53,1.81-1.06,2.69ZM74.67,2.48c.88-.39,1.41-1.85.85-2.23-.56-.38-2.89-.3-3.37.04-.48.33-.29.99-.05,1.39.47.79,1.65,1.22,2.57.81ZM64.39,11.79c.47.89,1.33.87,2.25.41.92-.46,1.27-1.02.8-1.91-.47-.89-1.49-1.56-2.41-1.11-.92.46-1.11,1.72-.64,2.61ZM69.3,9.36c.47.89,1.78.96,2.7.5s1.59-1.52,1.12-2.41c-.47-.89-1.96-1.36-2.88-.9-.92.46-1.42,1.92-.94,2.81Z" fill="#fbd500"/></g></svg>